<?xml version="1.0" encoding="iso-8859-1"?>
<!-- Uploaded to: SVG Repo, www.svgrepo.com, Generator: SVG Repo Mixer Tools -->
<svg fill="#000000" height="800px" width="800px" version="1.1" id="Layer_1" xmlns="http://www.w3.org/2000/svg" xmlns:xlink="http://www.w3.org/1999/xlink" 
	 viewBox="0 0 512 512" xml:space="preserve">
<g>
	<g>
		<path d="M501.333,384h-42.667V256c0-5.891-4.776-10.667-10.667-10.667H266.667V106.667H416c5.891,0,10.667-4.776,10.667-10.667
			V10.667C426.667,4.776,421.891,0,416,0H106.667C100.776,0,96,4.776,96,10.667V96c0,5.891,4.776,10.667,10.667,10.667h138.667
			v138.667H64c-5.891,0-10.667,4.776-10.667,10.667v128H10.667C4.776,384,0,388.776,0,394.667v106.667
			C0,507.224,4.776,512,10.667,512h106.667c5.891,0,10.667-4.776,10.667-10.667V394.667c0-5.891-4.776-10.667-10.667-10.667H74.667
			V266.667h170.667V384h-42.667c-5.891,0-10.667,4.776-10.667,10.667v106.667c0,5.891,4.776,10.667,10.667,10.667h106.667
			c5.891,0,10.667-4.776,10.667-10.667V394.667c0-5.891-4.776-10.667-10.667-10.667h-42.667V266.667h170.667V384h-42.667
			c-5.891,0-10.667,4.776-10.667,10.667v106.667c0,5.891,4.776,10.667,10.667,10.667h106.667c5.891,0,10.667-4.776,10.667-10.667
			V394.667C512,388.776,507.224,384,501.333,384z M106.667,405.333v85.333H21.333v-85.333H106.667z M298.667,405.333v85.333h-85.333
			v-85.333H298.667z M117.333,85.333v-64h288v64H117.333z M490.667,490.667h-85.333v-85.333h85.333V490.667z"/>
	</g>
</g>
</svg>