<svg width="138" height="56" viewBox="0 0 138 56" fill="none" xmlns="http://www.w3.org/2000/svg"><rect x="1.054" y="1.054" width="135.185" height="23.185" rx="11.592" fill="url(#a)"/><rect x="1.054" y="1.054" width="135.185" height="23.185" rx="11.592" stroke="url(#b)" stroke-width="2.108"/><path d="M15.336 8.94v7.705h-1.349V8.94zm2.319 2.15c0-1.348 1.117-2.286 2.74-2.286 1.56 0 2.55.864 2.592 2.255H21.64c-.032-.664-.506-1.054-1.265-1.054-.833 0-1.37.4-1.37 1.043 0 .549.295.854.938 1.002l1.212.263c1.317.285 1.96.96 1.96 2.108 0 1.433-1.117 2.36-2.814 2.36-1.644 0-2.719-.874-2.75-2.255h1.348c.011.654.538 1.044 1.402 1.044.896 0 1.465-.39 1.465-1.033 0-.517-.264-.822-.896-.96l-1.222-.273c-1.307-.285-1.992-1.033-1.992-2.213m10.953-.906V8.941h5.86v1.243h-2.256v6.46h-1.349v-6.46zm9.293 6.46h-1.349V8.942h1.35v3.182h3.414V8.942h1.349v7.704h-1.35v-3.267h-3.414zm12.311 0h-4.784V8.942h4.785v1.243h-3.436v1.982h3.077v1.19h-3.077v2.045h3.435zm5.768-2.17v-.454h1.297v.454c0 .59.326 1.053 1.085 1.053s1.075-.432 1.075-1.106V8.94h1.349v5.554c0 1.36-.949 2.287-2.413 2.287-1.581 0-2.393-.98-2.393-2.308m14.541-1.687c0 2.34-1.538 3.984-3.752 3.984-2.202 0-3.72-1.634-3.72-3.984 0-2.34 1.528-3.983 3.73-3.983 2.204 0 3.742 1.633 3.742 3.983m-1.423 0c0-1.644-.906-2.687-2.318-2.687s-2.319 1.043-2.319 2.687.907 2.688 2.319 2.688 2.318-1.065 2.318-2.688m3.733 3.858V8.94h3.066c1.518 0 2.445.79 2.445 2.076 0 .854-.38 1.465-1.106 1.77.811.264 1.222.875 1.222 1.77 0 1.318-.917 2.088-2.508 2.088zm2.95-6.513H74.18v2.097h1.634c.738 0 1.149-.39 1.149-1.075 0-.664-.422-1.022-1.18-1.022m.116 3.235H74.18v2.087h1.718c.759 0 1.18-.37 1.18-1.065 0-.653-.431-1.022-1.18-1.022m11.518 3.278h-2.772V8.94h2.698c2.277 0 3.847 1.57 3.847 3.867 0 2.266-1.539 3.837-3.773 3.837m-.2-6.46h-1.223V15.4h1.296c1.54 0 2.477-.99 2.477-2.592 0-1.634-.959-2.625-2.55-2.625m13.312 2.602c0 2.34-1.538 3.984-3.751 3.984-2.203 0-3.72-1.634-3.72-3.984 0-2.34 1.528-3.983 3.73-3.983s3.741 1.633 3.741 3.983m-1.422 0c0-1.644-.907-2.687-2.319-2.687s-2.318 1.043-2.318 2.687.906 2.688 2.318 2.688 2.319-1.065 2.319-2.688m5.06 3.858h-1.328V8.94h1.338l3.615 5.459V8.94h1.328v7.705h-1.328l-3.625-5.46zm12.497 0h-4.785V8.94h4.785v1.243h-3.436v1.982h3.077v1.19h-3.077V15.4h3.436zm4.898-1.971h-1.17v-.243c0-.959.59-1.454 1.149-1.886.474-.38.906-.738.906-1.349 0-.717-.443-1.19-1.18-1.19-.749 0-1.265.558-1.265 1.37h-1.339c0-1.508 1.107-2.572 2.635-2.572 1.57 0 2.519.906 2.519 2.308 0 1.127-.727 1.665-1.339 2.097-.516.369-.916.685-.916 1.222zm-.538 2.108a.845.845 0 0 1-.853-.833.855.855 0 0 1 1.707 0c0 .443-.39.833-.854.833" fill="#fff"/><g filter="url(#c)"><circle cx="44.784" cy="42.154" r="8.431" fill="url(#d)"/><circle cx="44.784" cy="42.154" r="7.377" stroke="url(#e)" stroke-width="2.108"/></g><path d="M68.393 42.067c0 1.871-1.23 3.187-3.001 3.187-1.762 0-2.976-1.307-2.976-3.187 0-1.872 1.222-3.187 2.984-3.187s2.993 1.306 2.993 3.187m-1.138 0c0-1.316-.725-2.15-1.855-2.15s-1.855.834-1.855 2.15.725 2.15 1.855 2.15 1.855-.852 1.855-2.15m4.065 3.085h-1.08V38.99h2.353c1.4 0 2.217.709 2.217 1.923 0 .826-.388 1.416-1.113 1.711l1.172 2.53h-1.18l-1.046-2.302H71.32zm0-5.202v1.948h1.273c.683 0 1.087-.363 1.087-.986 0-.616-.404-.962-1.087-.962z" fill="#767676"/><g filter="url(#f)"><circle cx="92.508" cy="42.154" r="8.431" fill="url(#g)"/><circle cx="92.508" cy="42.154" r="7.377" stroke="url(#h)" stroke-width="2.108"/></g><defs><linearGradient id="a" x1="68.646" y1="-6.06" x2="68.646" y2="33.987" gradientUnits="userSpaceOnUse"><stop stop-color="#1246ff"/><stop offset="1" stop-color="#4770ff"/></linearGradient><linearGradient id="b" x1="68.646" y1="32.933" x2="68.646" y2="-3.952" gradientUnits="userSpaceOnUse"><stop stop-color="#1246ff"/><stop offset="1" stop-color="#4770ff"/></linearGradient><linearGradient id="d" x1="44.784" y1="33.723" x2="44.784" y2="50.584" gradientUnits="userSpaceOnUse"><stop stop-color="#ff4848"/><stop offset="1" stop-color="#b30000"/></linearGradient><linearGradient id="e" x1="44.784" y1="33.723" x2="44.784" y2="50.584" gradientUnits="userSpaceOnUse"><stop stop-color="#fff"/><stop offset="1" stop-color="#f5f5f5"/></linearGradient><linearGradient id="g" x1="92.508" y1="33.723" x2="92.508" y2="50.584" gradientUnits="userSpaceOnUse"><stop stop-color="#48ff4e"/><stop offset="1" stop-color="#00b30c"/></linearGradient><linearGradient id="h" x1="92.508" y1="33.723" x2="92.508" y2="50.584" gradientUnits="userSpaceOnUse"><stop stop-color="#fff"/><stop offset="1" stop-color="#f5f5f5"/></linearGradient><filter id="c" x="34.545" y="32.689" width="20.479" height="22.805" filterUnits="userSpaceOnUse" color-interpolation-filters="sRGB"><feFlood flood-opacity="0" result="BackgroundImageFix"/><feColorMatrix in="SourceAlpha" values="0 0 0 0 0 0 0 0 0 0 0 0 0 0 0 0 0 0 127 0" result="hardAlpha"/><feMorphology radius="1.55" in="SourceAlpha" result="effect1_dropShadow_277_968"/><feOffset dy="3.1"/><feGaussianBlur stdDeviation="1.679"/><feComposite in2="hardAlpha" operator="out"/><feColorMatrix values="0 0 0 0 0 0 0 0 0 0 0 0 0 0 0 0 0 0 0.1 0"/><feBlend in2="BackgroundImageFix" result="effect1_dropShadow_277_968"/><feColorMatrix in="SourceAlpha" values="0 0 0 0 0 0 0 0 0 0 0 0 0 0 0 0 0 0 127 0" result="hardAlpha"/><feMorphology radius=".775" operator="dilate" in="SourceAlpha" result="effect2_dropShadow_277_968"/><feOffset/><feGaussianBlur stdDeviation=".129"/><feComposite in2="hardAlpha" operator="out"/><feColorMatrix values="0 0 0 0 0 0 0 0 0 0 0 0 0 0 0 0 0 0 0.05 0"/><feBlend in2="effect1_dropShadow_277_968" result="effect2_dropShadow_277_968"/><feBlend in="SourceGraphic" in2="effect2_dropShadow_277_968" result="shape"/></filter><filter id="f" x="82.269" y="32.689" width="20.479" height="22.805" filterUnits="userSpaceOnUse" color-interpolation-filters="sRGB"><feFlood flood-opacity="0" result="BackgroundImageFix"/><feColorMatrix in="SourceAlpha" values="0 0 0 0 0 0 0 0 0 0 0 0 0 0 0 0 0 0 127 0" result="hardAlpha"/><feMorphology radius="1.55" in="SourceAlpha" result="effect1_dropShadow_277_968"/><feOffset dy="3.1"/><feGaussianBlur stdDeviation="1.679"/><feComposite in2="hardAlpha" operator="out"/><feColorMatrix values="0 0 0 0 0 0 0 0 0 0 0 0 0 0 0 0 0 0 0.1 0"/><feBlend in2="BackgroundImageFix" result="effect1_dropShadow_277_968"/><feColorMatrix in="SourceAlpha" values="0 0 0 0 0 0 0 0 0 0 0 0 0 0 0 0 0 0 127 0" result="hardAlpha"/><feMorphology radius=".775" operator="dilate" in="SourceAlpha" result="effect2_dropShadow_277_968"/><feOffset/><feGaussianBlur stdDeviation=".129"/><feComposite in2="hardAlpha" operator="out"/><feColorMatrix values="0 0 0 0 0 0 0 0 0 0 0 0 0 0 0 0 0 0 0.05 0"/><feBlend in2="effect1_dropShadow_277_968" result="effect2_dropShadow_277_968"/><feBlend in="SourceGraphic" in2="effect2_dropShadow_277_968" result="shape"/></filter></defs></svg>