<svg xmlns="http://www.w3.org/2000/svg" fill="none" viewBox="0 0 500 450"><path fill="url(#paint0_linear_260_366)" d="M181.077 308.418c.18.18.471.18.651 0l2.93-2.93a.46.46 0 1 0-.651-.651l-2.604 2.605-2.605-2.605a.46.46 0 1 0-.651.651zm.326-38.035h-.461v37.71h.921v-37.71z"/><path fill="url(#paint1_linear_260_366)" d="M181.077 155.485c.18.179.471.179.651 0l2.93-2.93a.46.46 0 1 0-.651-.651l-2.604 2.604-2.605-2.604a.46.46 0 1 0-.651.651zm.326-36.575h-.461v36.249h.921V118.91z"/><path fill="url(#paint2_linear_260_366)" d="M250.135 308.418c.18.18.471.18.651 0l2.93-2.93a.46.46 0 1 0-.651-.651l-2.605 2.605-2.604-2.605a.46.46 0 1 0-.651.651zm.325-38.035H250v37.71h.921v-37.71z"/><path fill="url(#paint3_linear_260_366)" d="M250.135 155.485c.18.179.471.179.651 0l2.93-2.93a.46.46 0 1 0-.651-.651l-2.605 2.604-2.604-2.604a.46.46 0 1 0-.651.651zm.325-36.575H250v36.249h.921V118.91z"/><path fill="url(#paint4_linear_260_366)" d="M319.193 308.418a.46.46 0 0 0 .651 0l2.929-2.93a.46.46 0 1 0-.651-.651l-2.604 2.605-2.604-2.605a.46.46 0 1 0-.651.651zm.325-38.035h-.46v37.71h.92v-37.71z"/><path fill="url(#paint5_linear_260_366)" d="M319.193 155.485a.46.46 0 0 0 .651 0l2.929-2.93a.46.46 0 1 0-.651-.651l-2.604 2.604-2.604-2.604a.46.46 0 1 0-.651.651zm.325-36.575h-.46v36.249h.92V118.91z"/><rect width="13.812" height="13.812" x="100.835" y="161.642" fill="url(#paint6_linear_260_366)" rx="6.906"/><rect width="13.812" height="13.812" x="100.835" y="161.642" stroke="url(#paint7_linear_260_366)" stroke-width=".921" rx="6.906"/><path fill="#fff" fill-rule="evenodd" d="M107.741 164.838a3.71 3.71 0 0 1 3.565 2.68 1.066 1.066 0 0 1-.02 2.13 3.714 3.714 0 0 1-7.09 0 1.065 1.065 0 0 1-.021-2.13 3.71 3.71 0 0 1 3.566-2.68m-3.288 2.71a3.437 3.437 0 0 1 6.575 0 1.066 1.066 0 0 0-.02 2.065 3.437 3.437 0 0 1-6.535 0 1.066 1.066 0 0 0-.02-2.065" clip-rule="evenodd"/><path fill="#676767" d="M130.622 169.047c0 2.431-1.591 4.132-3.856 4.132-2.254 0-3.823-1.701-3.823-4.132 0-2.42 1.58-4.132 3.834-4.132 2.265 0 3.845 1.701 3.845 4.132m-1.138 0c0-1.856-1.083-3.083-2.707-3.083s-2.696 1.227-2.696 3.083 1.072 3.094 2.696 3.094 2.707-1.249 2.707-3.094m2.346 6.42v-7.823h.94l.077.972c.365-.74 1.094-1.127 1.956-1.127 1.547 0 2.508 1.16 2.508 2.818 0 1.646-.906 2.884-2.508 2.884-.862 0-1.58-.365-1.934-1.028v3.304zm1.05-5.116c0 1.105.641 1.9 1.702 1.9s1.69-.795 1.69-1.9c0-1.116-.63-1.912-1.69-1.912s-1.702.785-1.702 1.912m7.907 2.828c-1.591 0-2.685-1.149-2.685-2.828 0-1.691 1.072-2.862 2.641-2.862 1.536 0 2.541 1.061 2.541 2.663v.387l-4.176.011c.077 1.138.674 1.768 1.701 1.768.807 0 1.337-.332 1.514-.951h.972c-.265 1.161-1.171 1.812-2.508 1.812m-.044-4.817c-.906 0-1.481.541-1.613 1.492h3.116c0-.895-.586-1.492-1.503-1.492m4.74 4.685h-1.039v-5.403h.94l.11.828c.343-.618 1.028-.983 1.79-.983 1.425 0 2.077.873 2.077 2.254v3.304h-1.038v-3.072c0-1.094-.509-1.536-1.304-1.536-.973 0-1.536.696-1.536 1.746zm6.675 0-2.375-7.989h1.127l1.458 4.884c.111.42.221.84.332 1.447.132-.64.254-1.027.375-1.447l1.514-4.884h1.171l1.503 4.884c.133.431.243.851.365 1.447.132-.674.243-1.082.353-1.436l1.47-4.895h1.105l-2.409 7.989h-1.039l-1.933-6.32-1.956 6.32zm8.258-2.707c0-1.669 1.194-2.84 2.818-2.84 1.613 0 2.806 1.171 2.806 2.84s-1.193 2.839-2.806 2.839c-1.624 0-2.818-1.171-2.818-2.839m1.05 0c0 1.127.718 1.911 1.768 1.911 1.039 0 1.768-.784 1.768-1.911s-.729-1.912-1.768-1.912c-1.05 0-1.768.785-1.768 1.912m8.818-2.74v.95h-.464c-.983 0-1.591.596-1.591 1.635v2.862h-1.039v-5.392h.973l.066.817c.221-.563.762-.939 1.503-.939.187 0 .342.022.552.067m2.035 5.447h-1.039v-8.132h1.039v5.27l2.398-2.541h1.303l-2.066 2.154 2.055 3.249h-1.193l-1.58-2.497-.917.961zm11.063.121c-2.276 0-3.79-1.635-3.79-4.11 0-2.464 1.558-4.132 3.845-4.132 1.801 0 3.182 1.071 3.481 2.707h-1.16c-.299-1.039-1.194-1.669-2.354-1.669-1.613 0-2.674 1.216-2.674 3.083s1.061 3.083 2.674 3.083c1.171 0 2.099-.63 2.398-1.613h1.149c-.343 1.591-1.768 2.651-3.569 2.651m5.704-.132h-1.038v-8.121h1.038v3.557c.343-.585.995-.983 1.835-.983 1.381 0 2.044.873 2.044 2.254v3.304h-1.039v-3.072c0-1.094-.519-1.536-1.293-1.536-1.005 0-1.547.73-1.547 1.658zm6.897.143c-1.16 0-1.845-.651-1.845-1.635 0-.994.74-1.613 2.011-1.712l1.702-.133v-.155c0-.906-.542-1.226-1.271-1.226-.873 0-1.37.387-1.37 1.038h-.906c0-1.127.928-1.867 2.32-1.867 1.337 0 2.243.707 2.243 2.166v3.392h-.884l-.11-.873c-.276.619-1.017 1.005-1.89 1.005m.299-.806c.983 0 1.58-.641 1.58-1.658v-.287l-1.381.111c-.918.088-1.293.442-1.293.972 0 .575.42.862 1.094.862m4.532-6.011a.69.69 0 0 1-.685-.685.68.68 0 0 1 .685-.685.68.68 0 0 1 .685.685.69.69 0 0 1-.685.685m-.508 6.685v-5.403h1.038v5.403zm3.585 0h-1.039v-5.403h.939l.111.828c.342-.618 1.027-.983 1.79-.983 1.425 0 2.077.873 2.077 2.254v3.304h-1.039v-3.072c0-1.094-.508-1.536-1.303-1.536-.973 0-1.536.696-1.536 1.746z"/><path fill="#fff" d="M98 193.039h303v79.186H98z"/><path fill="#2b2b2b" fill-opacity=".6" d="M213.02 248.086h-.903v-6.657h.903l3.406 5.147v-5.147h.903v6.657h-.903l-3.406-5.147zm7.028.11c-.966 0-1.537-.543-1.537-1.362 0-.829.617-1.345 1.676-1.428l1.418-.11v-.129c0-.755-.452-1.022-1.059-1.022-.728 0-1.142.322-1.142.866h-.755c0-.94.773-1.557 1.934-1.557 1.114 0 1.869.59 1.869 1.805v2.827h-.737l-.092-.727c-.23.515-.847.837-1.575.837m.249-.672c.82 0 1.317-.534 1.317-1.381v-.239l-1.151.092c-.764.073-1.077.368-1.077.81 0 .479.349.718.911.718m4.552.562h-.865v-3.775h-.884v-.728h.884v-1.408h.865v1.408h.884v.728h-.884zm2.084-5.571a.574.574 0 0 1-.571-.571c0-.322.258-.57.571-.57s.571.248.571.57a.574.574 0 0 1-.571.571m-.423 5.571v-4.503h.865v4.503zm3.383 0-1.814-4.503H229l.985 2.514c.157.424.286.801.359 1.077.074-.294.221-.681.378-1.077l1.004-2.514h.902l-1.878 4.503zm5.16.11c-1.326 0-2.238-.957-2.238-2.357 0-1.409.893-2.385 2.201-2.385 1.28 0 2.118.884 2.118 2.22v.322l-3.481.009c.065.948.562 1.473 1.418 1.473.672 0 1.114-.276 1.262-.792h.81c-.221.967-.976 1.51-2.09 1.51m-.037-4.014c-.755 0-1.234.451-1.345 1.243h2.597c0-.746-.488-1.243-1.252-1.243m8.512 4.005c-1.897 0-3.159-1.363-3.159-3.425 0-2.053 1.299-3.444 3.205-3.444 1.501 0 2.652.893 2.9 2.256h-.967c-.248-.865-.994-1.39-1.961-1.39-1.344 0-2.228 1.013-2.228 2.569s.884 2.569 2.228 2.569c.976 0 1.75-.525 1.998-1.345h.958c-.286 1.326-1.473 2.21-2.974 2.21m3.638-2.357c0-1.39.995-2.366 2.348-2.366 1.345 0 2.339.976 2.339 2.366s-.994 2.366-2.339 2.366c-1.353 0-2.348-.976-2.348-2.366m.875 0c0 .939.598 1.593 1.473 1.593.866 0 1.473-.654 1.473-1.593s-.607-1.593-1.473-1.593c-.875 0-1.473.654-1.473 1.593m5.636 2.256h-.866v-4.503h.783l.092.691c.285-.516.856-.82 1.491-.82 1.188 0 1.731.728 1.731 1.879v2.753h-.865v-2.56c0-.911-.424-1.28-1.087-1.28-.81 0-1.279.58-1.279 1.455zm5.701 0h-.866v-3.775h-.884v-.728h.884v-1.408h.866v1.408h.884v.728h-.884zm4.239-4.539v.791h-.387c-.819 0-1.326.498-1.326 1.363v2.385h-.865v-4.493h.81l.055.681c.184-.47.635-.783 1.252-.783.157 0 .286.019.461.056m1.948 4.649c-.966 0-1.537-.543-1.537-1.362 0-.829.617-1.345 1.676-1.428l1.418-.11v-.129c0-.755-.452-1.022-1.059-1.022-.728 0-1.142.322-1.142.866h-.755c0-.94.773-1.557 1.933-1.557 1.115 0 1.87.59 1.87 1.805v2.827h-.737l-.092-.727c-.23.515-.847.837-1.575.837m.249-.672c.82 0 1.317-.534 1.317-1.381v-.239l-1.151.092c-.764.073-1.078.368-1.078.81 0 .479.35.718.912.718m3.059-1.685c0-1.409.893-2.385 2.21-2.385 1.132 0 1.924.645 2.08 1.649h-.865c-.147-.571-.608-.875-1.188-.875-.819 0-1.381.626-1.381 1.602 0 .967.525 1.593 1.344 1.593.617 0 1.078-.322 1.234-.856h.866c-.175.976-1.013 1.629-2.1 1.629-1.326 0-2.2-.939-2.2-2.357m6.484 2.247h-.866v-3.775h-.884v-.728h.884v-1.408h.866v1.408h.883v.728h-.883z"/><g filter="url(#filter0_d_260_366)"><rect width="91.156" height="34.989" x="119.711" y="192.047" fill="url(#paint8_linear_260_366)" rx="8.858"/><rect width="87.473" height="31.306" x="121.552" y="193.888" stroke="url(#paint9_linear_260_366)" stroke-width="3.683" rx="7.016"/></g><rect width="13.812" height="13.812" x="130.542" y="202.636" fill="url(#paint10_linear_260_366)" rx="6.906"/><rect width="13.812" height="13.812" x="130.542" y="202.636" stroke="url(#paint11_linear_260_366)" stroke-width=".921" rx="6.906"/><path fill="#fff" fill-rule="evenodd" d="M137.448 205.832a3.71 3.71 0 0 1 3.565 2.68 1.065 1.065 0 0 1-.02 2.13 3.712 3.712 0 0 1-7.09 0 1.065 1.065 0 0 1-.021-2.13 3.71 3.71 0 0 1 3.566-2.68m-3.288 2.71a3.436 3.436 0 0 1 6.575 0 1.065 1.065 0 0 0-.02 2.065 3.436 3.436 0 0 1-6.535 0 1.066 1.066 0 0 0-.02-2.065" clip-rule="evenodd"/><path fill="#2b2b2b" d="M156.722 210.176c0 2.431-1.591 4.132-3.857 4.132-2.254 0-3.823-1.701-3.823-4.132 0-2.42 1.58-4.132 3.834-4.132 2.266 0 3.846 1.701 3.846 4.132m-1.138 0c0-1.856-1.083-3.083-2.708-3.083-1.624 0-2.696 1.227-2.696 3.083s1.072 3.094 2.696 3.094 2.708-1.249 2.708-3.094m2.346 6.42v-7.823h.939l.077.972c.365-.74 1.094-1.127 1.956-1.127 1.547 0 2.508 1.16 2.508 2.818 0 1.646-.906 2.883-2.508 2.883-.862 0-1.58-.364-1.934-1.027v3.304zm1.049-5.116c0 1.105.641 1.9 1.702 1.9s1.691-.795 1.691-1.9c0-1.116-.63-1.912-1.691-1.912s-1.702.785-1.702 1.912m7.907 2.828c-1.591 0-2.685-1.149-2.685-2.828 0-1.691 1.072-2.862 2.641-2.862 1.536 0 2.542 1.061 2.542 2.663v.387l-4.177.011c.077 1.138.674 1.768 1.702 1.768.806 0 1.336-.332 1.513-.951h.973c-.266 1.16-1.172 1.812-2.509 1.812m-.044-4.817c-.906 0-1.48.541-1.613 1.492h3.116c0-.895-.586-1.492-1.503-1.492m4.74 4.685h-1.038v-5.403h.939l.11.828c.343-.618 1.028-.983 1.79-.983 1.426 0 2.078.873 2.078 2.254v3.304h-1.039v-3.072c0-1.094-.508-1.536-1.304-1.536-.972 0-1.536.696-1.536 1.746zm6.402 0-1.768-5.403h1.072l.895 2.806c.121.398.232.807.331 1.282.088-.475.232-.928.354-1.282l.906-2.806h1.06l.895 2.806c.089.265.266.895.354 1.282.088-.431.188-.807.343-1.282l.906-2.806h1.082l-1.845 5.403h-.983l-.939-2.895a10 10 0 0 1-.343-1.26c-.055.265-.155.619-.354 1.271l-.939 2.884zm6.719-2.707c0-1.669 1.193-2.84 2.818-2.84 1.613 0 2.806 1.171 2.806 2.84s-1.193 2.839-2.806 2.839c-1.625 0-2.818-1.171-2.818-2.839m1.05 0c0 1.127.718 1.911 1.768 1.911 1.038 0 1.767-.784 1.767-1.911s-.729-1.912-1.767-1.912c-1.05 0-1.768.785-1.768 1.912m8.818-2.74v.95h-.465c-.983 0-1.591.596-1.591 1.635v2.862h-1.038v-5.392h.972l.066.817c.221-.563.763-.939 1.503-.939.188 0 .343.022.553.067m2.034 5.447h-1.038v-8.132h1.038v5.27l2.398-2.541h1.304l-2.066 2.154 2.055 3.249h-1.193l-1.581-2.497-.917.961z"/><g filter="url(#filter1_d_260_366)"><rect width="81.948" height="34.989" x="221.917" y="192.047" fill="url(#paint12_linear_260_366)" rx="8.858"/><rect width="78.265" height="31.306" x="223.758" y="193.888" stroke="url(#paint13_linear_260_366)" stroke-width="3.683" rx="7.016"/></g><path fill="#535353" d="m240.983 211.812.001-.001v.001z"/><path fill="#535353" fill-rule="evenodd" d="M243.049 216.294a6.753 6.753 0 1 0 0-13.506 6.753 6.753 0 0 0 0 13.506m5.196-2.94a6.4 6.4 0 0 0 1.249-3.813c0-.672-.103-1.321-.295-1.931l-.034.007-.018.004q-.091.018-.181.043l-.057.015-.385.101-.709.185-.929.237-.407.103.015.091q.017.105.03.213l.019.176c.024.23.049.46.064.69q.017.254.026.508c.01.258.021.515.047.771.035.351.11.698.297 1.01.105.174.251.3.417.408.224.145.436.304.582.526.178.257.249.507.269.656m-.363.446-.001.005a6.4 6.4 0 0 1-.921.859l.007-.055.003-.014a.4.4 0 0 0 .008-.096 2.5 2.5 0 0 0-.001-.39l.003-.022a1.4 1.4 0 0 0-.276-.67c-.22-.298-.505-.529-.79-.76l-.069-.055c-.418-.339-.823-.694-1.109-1.157a2.5 2.5 0 0 1-.181-.39l-.043-.106c-.009-.023.012-.07.034-.092q.115-.067.211-.159l.293.201q.352.24.698.487.164.119.321.246.179.144.365.277c.114.08.233.152.352.225.118.072.236.143.348.222.308.215.538.495.655.859l.015.036q.022.062.045.183l-.001.009a.2.2 0 0 0 .009.041q.022.134.025.316m-1.263.543.002-.001-.001.002a4 4 0 0 1-.018.212l-.003.002.002.005a4 4 0 0 1-.033.219 1 1 0 0 1-.043.163l-.016.035a6.5 6.5 0 0 1-1.083.554q.02-.047.042-.092c.047-.102.094-.203.125-.309.078-.26.063-.526-.008-.788-.098-.361-.304-.664-.511-.968l-.031-.046-.14-.204c-.185-.269-.37-.539-.539-.818-.228-.379-.304-.804-.31-1.243q0-.018.004-.034l.001-.005.001-.007.041-.01a1.2 1.2 0 0 0 .258-.064l.021-.005q.043.117.083.232c.058.169.115.334.195.487.192.368.473.669.784.942l.141.123c.183.159.366.318.538.487.311.305.482.677.495 1.132zm-1.821 1.403.01-.008a1.7 1.7 0 0 0 .298-.342c.275-.407.328-.839.096-1.282a5 5 0 0 0-.302-.482l-.039-.057-.173-.25c-.237-.342-.475-.683-.635-1.072-.141-.345-.229-.699-.206-1.075l.009-.107.005-.055a1.17 1.17 0 0 1-1.074-1.267q-.011-.028-.059-.04a9 9 0 0 0-1.302-.256 7 7 0 0 0-1.36-.03h-.003c-.095.009-.142.013-.171-.008s-.039-.067-.059-.16q-.006-.029-.016-.057l-.014-.052-.021-.093-.016-.071q-.117-.51-.231-1.021a7 7 0 0 1-.051-.26l-.023-.121.032-.007.042-.008h.03q.21-.007.421-.01h.006c.167-.001.169-.001.234-.16a2.8 2.8 0 0 1 .81-1.095c.072-.06.063-.099.021-.163q-.675-1.021-1.345-2.044-.02-.032-.041-.041a6.448 6.448 0 0 0 1.284 11.586l.023-.009c.474-.246.904-.552 1.25-.963.182-.215.323-.457.378-.735.068-.336-.007-.648-.181-.941l-.007-.012c-.134-.226-.134-.226-.37-.1l-.009.005c-.267.124-.538.235-.841.211-.251-.02-.497-.162-.474-.483a.84.84 0 0 0-.13-.496c-.04-.065-.071-.128-.024-.208.015-.024.001-.078-.018-.107l-.003-.005-.004-.006-.002-.002c-.045-.069-.085-.128-.032-.224a.4.4 0 0 0 .029-.17q0-.03.003-.059c.006-.081-.022-.119-.117-.119-.186 0-.336-.07-.414-.256-.025-.061-.009-.096.027-.145l.014-.019.014-.018c.094-.129.19-.259.264-.399.138-.259.193-.545.219-.835.007-.085.052-.08.099-.075l.032.002c.064.001.081.034.069.095l-.03.173q-.02.141-.052.279c-.074.309-.188.602-.399.847-.063.074.001.119.042.13.063.018.129.025.194.032q.053.005.102.012c.031.005.087.016.087.028l.008.085c.012.138.024.276.015.413-.008.117-.003.167.111.209q.042.014.095.025l.06.014-.056.034-.096.057c-.078.045-.082.098-.039.177q.137.257.129.55c-.003.133.037.203.16.238.09.025.189.043.281.033.221-.024.429-.102.625-.208q.521-.281.94-.699.01-.008.03-.009l.022-.004c-.088.307-.308.495-.541.674l.035.05.054.073c.426.578.435 1.228.033 1.821-.254.374-.594.651-.963.899l-.123.085-.062.042.013.036q.102-.017.206-.031c.154-.021.307-.042.456-.082a4.5 4.5 0 0 0 1.25-.577l.102-.065c.179-.115.358-.23.543-.331.331-.181.691-.281 1.059-.354.16-.032.192-.012.206.134l-.269.076c-.203.057-.405.113-.603.18-.305.103-.57.279-.836.456l-.134.087c-.462.302-.948.556-1.499.657-.048.009-.095.02-.151.033l-.028.006a6.5 6.5 0 0 0 3.071-.104m-4.13-10.666.017.026.626.949.197-.102q.243-.128.481-.247c.055-.028.082-.056.06-.117l-.15-.422a246 246 0 0 1-.607-1.761q-.013-.041-.033-.057a6.4 6.4 0 0 0-1.358.568zm1.28-.564.021.06.339.984.67-.138.22-.046v-.099l-.035-1.558-.005-.164q-.006-.194-.007-.389a.14.14 0 0 0-.015-.069h-.087q-.79.002-1.527.182zm1.452-1.41.027 1.112.002.08.027 1.087.139.009c.097.006.187.011.276.025.164.027.327.067.488.107.055.014.078.002.095-.052q.16-.498.324-.995l.235-.697.001-.002.115-.34a6.4 6.4 0 0 0-1.729-.334m1.97.421-.495 1.489-.015.043-.187.565.331.223.005.003.381.256.701-.709.005-.005.919-.931a6.5 6.5 0 0 0-1.645-.934m1.869 1.118-1.353 1.313-.332.322.45.634 1.075-.582.03-.016 1.122-.607a6.5 6.5 0 0 0-.992-1.064m1.146 1.281a.2.2 0 0 0-.051.02q-.356.196-.713.387l-.358.194-.366.199q-.36.197-.721.39c-.049.026-.064.044-.044.1q.138.372.26.749c.026.082.06.087.133.068q.359-.093.717-.182l.567-.143q.209-.054.416-.111l.284-.077.44-.114.167-.043a6.4 6.4 0 0 0-.731-1.437m-4.855 2.832c-.312.121-.56.372-.676.686-.031.022-.071.02-.128.007q-.561-.128-1.128-.234c-.4-.076-.805-.07-1.21-.065q-.131.003-.262.003l-.035-.003-.024-.002-.162-.732-.001-.006-.134-.606a8.16 8.16 0 0 1 3.76.952m.325-.075a.7.7 0 0 1-.154-.082 6.4 6.4 0 0 0-1.72-.767 6 6 0 0 0-1.131-.221 12 12 0 0 1-.409-.045l.029-.08q.028-.082.064-.156c.224-.448.562-.793.972-1.072a3.4 3.4 0 0 1 1.008-.473c.461-.129.925-.182 1.406-.092a2.52 2.52 0 0 1 1.551.927c.273.339.472.719.586 1.137.095.351.186.706.234 1.065.045.326.056.657.067.987l.005.158c.017.472.057.939.191 1.394.021.072.051.141.08.21l.041.097-.009.007-.009.008-1.279-.851-.454-.302.029-.076a1.17 1.17 0 0 0-1.098-1.773m.097 2.09a.924.924 0 1 0 0-1.849.924.924 0 0 0 0 1.849" clip-rule="evenodd"/><path stroke="#535353" stroke-width=".473" d="m240.983 211.812-.06-.014a1 1 0 0 1-.095-.025c-.114-.042-.119-.092-.111-.209a3 3 0 0 0-.015-.413l-.008-.085c0-.012-.056-.023-.087-.028l-.102-.012c-.065-.007-.131-.014-.194-.032-.041-.011-.105-.056-.042-.13.211-.245.325-.538.399-.847q.031-.138.052-.279l.03-.173c.012-.061-.005-.094-.069-.095l-.032-.002c-.047-.005-.092-.01-.099.075-.026.29-.081.576-.219.835-.074.14-.17.27-.264.399l-.014.018-.014.019c-.036.049-.052.084-.027.145.078.186.228.256.414.256.095 0 .123.038.117.119l-.003.059a.4.4 0 0 1-.029.17c-.053.096-.013.155.032.224l.002.002.004.006.003.005c.019.029.033.083.018.107-.047.08-.016.143.024.208a.84.84 0 0 1 .13.496c-.023.321.223.463.474.483.303.024.574-.087.841-.211l.009-.005c.236-.126.236-.126.37.1l.007.012c.174.293.249.605.181.941-.055.278-.196.52-.378.735-.346.411-.776.717-1.25.963l-.023.009a6.448 6.448 0 0 1-1.284-11.586q.02.008.041.041.67 1.023 1.345 2.044c.042.064.051.103-.021.163a2.8 2.8 0 0 0-.81 1.095c-.065.159-.067.159-.234.16h-.006l-.421.01h-.03l-.042.008-.032.007.023.121q.023.131.051.26.114.511.231 1.021l.016.071.021.093.014.052q.01.029.016.057c.02.093.03.139.059.16s.076.017.171.008h.003a7 7 0 0 1 1.36.03c.442.049.873.145 1.302.256q.048.012.059.04a1.17 1.17 0 0 0 1.074 1.267l-.005.055-.009.107c-.023.376.065.73.206 1.075.16.389.398.73.635 1.072l.173.25.039.057c.107.157.214.315.302.482.232.443.179.875-.096 1.282a1.7 1.7 0 0 1-.298.342l-.01.008a6.5 6.5 0 0 1-3.071.104l.028-.006c.056-.013.103-.024.151-.033.551-.101 1.037-.355 1.499-.657l.134-.087c.266-.177.531-.353.836-.456.198-.067.4-.123.603-.18l.269-.076c-.014-.146-.046-.166-.206-.134-.368.073-.728.173-1.059.354a9 9 0 0 0-.543.331l-.102.065a4.5 4.5 0 0 1-1.25.577c-.149.04-.302.061-.456.082q-.104.014-.206.031l-.013-.036.062-.042.123-.085c.369-.248.709-.525.963-.899.402-.593.393-1.243-.033-1.821l-.054-.073-.035-.05c.233-.179.453-.367.541-.674l-.022.004q-.02.001-.03.009a4 4 0 0 1-.94.699 1.7 1.7 0 0 1-.625.208.8.8 0 0 1-.281-.033c-.123-.035-.163-.105-.16-.238a1.1 1.1 0 0 0-.129-.55c-.043-.079-.039-.132.039-.177l.096-.057zm0 0 .001-.001v.001zm8.511-2.271a6.4 6.4 0 0 1-1.249 3.813 1.6 1.6 0 0 0-.269-.656c-.146-.222-.358-.381-.582-.526a1.3 1.3 0 0 1-.417-.408c-.187-.312-.262-.659-.297-1.01a12 12 0 0 1-.047-.771q-.01-.254-.026-.508c-.015-.23-.04-.46-.064-.69l-.019-.176a5 5 0 0 0-.03-.213l-.015-.091.407-.103.929-.237.709-.185.385-.101.057-.015q.09-.025.181-.043l.018-.004.034-.007c.192.61.295 1.259.295 1.931Zm-1.612 4.259-.001.005a6.4 6.4 0 0 1-.921.859l.007-.055.003-.014a.4.4 0 0 0 .008-.096 2.5 2.5 0 0 0-.001-.39l.003-.022a1.4 1.4 0 0 0-.276-.67c-.22-.298-.505-.529-.79-.76l-.069-.055c-.418-.339-.823-.694-1.109-1.157a2.5 2.5 0 0 1-.181-.39l-.043-.106c-.009-.023.012-.07.034-.092q.115-.067.211-.159l.293.201q.352.24.698.487.164.119.321.246.179.144.365.277c.114.08.233.152.352.225.118.072.236.143.348.222.308.215.538.495.655.859l.015.036q.022.062.045.183l-.001.009a.2.2 0 0 0 .009.041q.022.134.025.316Zm-1.261.542-.002.001-.003.001a1.6 1.6 0 0 0-.495-1.132 12 12 0 0 0-.538-.487l-.141-.123c-.311-.273-.592-.574-.784-.942a3.5 3.5 0 0 1-.195-.487l-.083-.232-.021.005a1.2 1.2 0 0 1-.258.064l-.041.01-.001.007-.001.005q-.004.016-.004.034c.006.439.082.864.31 1.243.169.279.354.549.539.818l.14.204.031.046c.207.304.413.607.511.968.071.262.086.528.008.788-.031.106-.078.207-.125.309q-.022.045-.042.092a6.5 6.5 0 0 0 1.083-.554l.016-.035a1 1 0 0 0 .05-.195q.015-.092.026-.187l-.002-.005.003-.002a4 4 0 0 0 .018-.212zm-5.953-9.262-.767-1.163q.64-.36 1.358-.568.02.016.033.057.164.487.333.973l.274.788.15.422c.022.061-.005.089-.06.117q-.238.119-.481.247l-.197.102-.626-.949zm1.28-.564-.426-1.237a6.5 6.5 0 0 1 1.527-.182h.087q.014.025.015.069.001.195.007.389l.005.164.035 1.558v.099l-.22.046-.67.138-.339-.984zm1.479-.298-.027-1.112a6.4 6.4 0 0 1 1.729.334l-.115.34-.001.002-.235.697q-.164.497-.324.995c-.017.054-.04.066-.095.052a6 6 0 0 0-.488-.107c-.089-.014-.179-.019-.276-.025l-.139-.009-.027-1.087zm1.448.798.495-1.489a6.5 6.5 0 0 1 1.645.934l-.919.931-.005.005-.701.709-.381-.256-.005-.003-.331-.223.187-.565zm1.011.942 1.353-1.313q.555.476.992 1.064l-1.122.607-.03.016-1.075.582-.45-.634zm2.448-.012a.2.2 0 0 1 .051-.02c.3.442.547.925.731 1.437l-.167.043-.44.114-.284.077q-.207.057-.416.111l-.567.143-.717.182c-.073.019-.107.014-.133-.068q-.122-.377-.26-.749c-.02-.056-.005-.074.044-.1a100 100 0 0 0 1.087-.589l.358-.194q.357-.191.713-.387Zm-5.48 3.498c.116-.314.364-.565.676-.686a8.16 8.16 0 0 0-3.76-.952l.134.606.001.006.162.732.024.002.035.003q.131 0 .262-.003c.405-.005.81-.011 1.21.065q.567.106 1.128.234c.057.013.097.015.128-.007Zm.847-.843a.7.7 0 0 0 .154.082q.049-.004.097-.004a1.17 1.17 0 0 1 1.001 1.777l-.029.076.454.302 1.279.851.009-.008.009-.007-.041-.097c-.029-.069-.059-.138-.08-.21-.134-.455-.174-.922-.191-1.394l-.005-.158c-.011-.33-.022-.661-.067-.987a8 8 0 0 0-.234-1.065 3.1 3.1 0 0 0-.586-1.137 2.52 2.52 0 0 0-1.551-.927c-.481-.09-.945-.037-1.406.092a3.4 3.4 0 0 0-1.008.473c-.41.279-.748.624-.972 1.072a1 1 0 0 0-.064.156l-.029.08.139.016q.141.017.27.029c.385.033.76.117 1.131.221.61.172 1.186.424 1.72.767Zm6.101.94a6.753 6.753 0 1 1-13.506 0 6.753 6.753 0 0 1 13.506 0Zm-4.926.308a.924.924 0 1 1-1.849 0 .924.924 0 0 1 1.849 0Z"/><path fill="#2b2b2b" d="M255.689 214.176h-1.127l2.917-7.989h1.204l2.928 7.989h-1.138l-.718-1.989h-3.359zm2.254-6.265-1.215 3.337h2.707l-1.227-3.337a3.5 3.5 0 0 1-.132-.464 5 5 0 0 1-.133.464m5.981 6.265h-1.038v-4.53h-1.061v-.873h1.061v-1.691h1.038v1.691h1.061v.873h-1.061zm3.032-.011h-1.039v-8.121h1.039v3.557c.342-.585.994-.983 1.834-.983 1.381 0 2.044.873 2.044 2.254v3.304h-1.039v-3.072c0-1.094-.519-1.536-1.292-1.536-1.006 0-1.547.729-1.547 1.658zm7.648.143c-1.591 0-2.685-1.149-2.685-2.828 0-1.691 1.072-2.862 2.641-2.862 1.535 0 2.541 1.061 2.541 2.663v.387l-4.177.011c.078 1.138.674 1.768 1.702 1.768.807 0 1.337-.332 1.514-.951h.972c-.265 1.16-1.171 1.812-2.508 1.812m-.044-4.817c-.906 0-1.481.541-1.614 1.492h3.116c0-.895-.585-1.492-1.502-1.492m4.74 4.685h-1.039v-5.403h.939l.111.828c.342-.618 1.027-.983 1.79-.983 1.425 0 2.077.873 2.077 2.254v3.304h-1.039v-3.072c0-1.094-.508-1.536-1.303-1.536-.973 0-1.536.696-1.536 1.746zm6.897.132c-1.161 0-1.846-.652-1.846-1.635 0-.994.741-1.613 2.011-1.713l1.702-.132v-.155c0-.906-.542-1.226-1.271-1.226-.873 0-1.37.386-1.37 1.038h-.906c0-1.127.928-1.867 2.32-1.867 1.337 0 2.243.707 2.243 2.166v3.392h-.884l-.11-.873c-.276.619-1.017 1.005-1.889 1.005m.298-.806c.983 0 1.58-.641 1.58-1.658v-.287l-1.381.111c-.917.088-1.293.442-1.293.972 0 .574.42.862 1.094.862"/><g filter="url(#filter2_d_260_366)"><rect width="64.454" height="34.989" x="314.914" y="192.047" fill="url(#paint14_linear_260_366)" rx="8.858"/><rect width="60.771" height="31.306" x="316.756" y="193.888" stroke="url(#paint15_linear_260_366)" stroke-width="3.683" rx="7.016"/></g><g clip-path="url(#clip0_260_366)"><path stroke="#535353" stroke-linecap="round" stroke-linejoin="round" stroke-width=".921" d="m331.458 214.913.904.503c.174.096.261.145.353.164a.6.6 0 0 0 .248 0c.092-.019.179-.068.353-.164l.904-.503m-5.524-1.534-.876-.487c-.184-.102-.276-.153-.343-.226a.6.6 0 0 1-.132-.223c-.031-.094-.031-.199-.031-.409v-.957m0-3.069v-.957c0-.21 0-.316.031-.409a.6.6 0 0 1 .132-.224c.067-.072.159-.123.343-.226l.876-.486m2.762-1.535.904-.502c.174-.097.261-.145.353-.164a.6.6 0 0 1 .248 0c.092.019.179.067.353.164l.904.502m2.763 1.535.876.486c.183.103.275.154.342.226a.6.6 0 0 1 .132.224c.031.093.031.199.031.409v.957m0 3.069v.957c0 .21 0 .315-.031.409a.6.6 0 0 1-.132.223c-.067.073-.159.124-.342.226l-.876.487m-5.525-4.604 1.381.767m0 0 1.381-.767m-1.381.767v1.535m-5.525-4.604 1.382.767m8.287 0 1.381-.767m-5.525 7.673v1.535"/></g><path fill="#2b2b2b" d="M347.874 214.176h-2.641v-7.989h2.597c2.386 0 3.999 1.613 3.999 4 0 2.376-1.591 3.989-3.955 3.989m-.122-6.994h-1.436v5.988h1.48c1.779 0 2.906-1.149 2.906-2.983 0-1.856-1.127-3.005-2.95-3.005m5.43 6.994h-1.127l2.917-7.989h1.205l2.928 7.989h-1.138l-.719-1.989h-3.358zm2.254-6.265-1.215 3.337h2.707l-1.226-3.337a3 3 0 0 1-.133-.464c-.022.11-.077.298-.133.464m11.579 2.265c0 2.431-1.591 4.132-3.856 4.132-2.255 0-3.823-1.701-3.823-4.132 0-2.42 1.58-4.132 3.834-4.132 2.265 0 3.845 1.701 3.845 4.132m-1.138 0c0-1.856-1.083-3.083-2.707-3.083-1.625 0-2.696 1.227-2.696 3.083s1.071 3.094 2.696 3.094c1.624 0 2.707-1.249 2.707-3.094"/><g filter="url(#filter3_d_260_366)"><rect width="302.933" height="78.265" x="98.073" y="180.539" stroke="url(#paint16_linear_260_366)" stroke-width=".921" rx="8.397" shape-rendering="crispEdges"/></g><path fill="#eceff0" d="M115.809 334.578a7.37 7.37 0 0 1-8.928 5.368c-3.944-.986-6.348-4.98-5.365-8.924s4.974-6.352 8.916-5.368c3.953.971 6.358 4.977 5.377 8.924"/><path fill="#343535" d="M108.748 334.59c-.029.009-.045-.016-.065-.027l-2.858-1.69-.029-.012v-.013l.017-.009.07-.023 2.248-1.023.601-.272h.015v.082z"/><path fill="#2f3030" d="M108.749 331.522h-.014l.003-.087v-3.356a.2.2 0 0 1 .005-.086h.006c.118.174.22.357.329.537l2.569 4.264q.012.02.023.044l-.072-.021-.47-.215-.732-.335-1.176-.532z"/><path fill="#828384" d="M108.744 327.992a.2.2 0 0 0-.005.086v3.355l-.003.088-.601.271-2.248 1.023-.071.023c.065-.135.149-.258.226-.387l2.678-4.447.019-.024z"/><path fill="#131313" d="m108.749 331.522.472.212 1.176.532.731.334.471.216a.4.4 0 0 0 .071.021c.029.036-.014.037-.026.045q-.367.219-.734.434l-2.107 1.247-.055.027v-2.987z"/><path fill="#2f3030" d="m108.738 335.155 1.838-1.084 1.053-.622.032-.017c.003.028-.017.043-.029.06l-2.404 3.388q-.227.322-.456.641c-.008.012-.02.064-.045.008.019-.016.011-.038.011-.057z"/><path fill="#828384" d="M108.737 335.155v2.316c0 .02.009.042-.01.057-.041-.024-.059-.069-.086-.105l-2.786-3.927-.035-.053c.024-.014.037.006.051.014l2.818 1.666z"/><path fill="#393939" d="m108.744 327.992-.006-.011c.012-.008.011.004.013.01z"/><path fill="#676767" d="M129.644 337.299h-4.873v-7.989h4.873v.995h-3.79v2.497h3.414v.961h-3.414v2.53h3.79zm2.917 0h-1.039v-4.53h-1.061v-.873h1.061v-1.691h1.039v1.691h1.061v.873h-1.061zm3.031-.011h-1.038v-8.121h1.038v3.557c.343-.585.995-.983 1.834-.983 1.382 0 2.045.873 2.045 2.254v3.304h-1.039v-3.072c0-1.094-.519-1.536-1.293-1.536-1.005 0-1.547.73-1.547 1.658zm7.649.143c-1.592 0-2.685-1.149-2.685-2.828 0-1.691 1.071-2.862 2.64-2.862 1.536 0 2.542 1.061 2.542 2.663v.387l-4.177.011c.077 1.138.674 1.768 1.702 1.768.806 0 1.337-.332 1.513-.951h.973c-.265 1.161-1.172 1.812-2.508 1.812m-.045-4.817c-.906 0-1.48.541-1.613 1.492h3.116c0-.895-.586-1.492-1.503-1.492m6.796-.762v.95h-.465c-.983 0-1.591.596-1.591 1.635v2.862h-1.038v-5.392h.972l.066.817c.221-.563.763-.939 1.503-.939.188 0 .343.022.553.067m3.111 5.579c-1.591 0-2.685-1.149-2.685-2.828 0-1.691 1.072-2.862 2.641-2.862 1.535 0 2.541 1.061 2.541 2.663v.387l-4.177.011c.078 1.138.674 1.768 1.702 1.768.807 0 1.337-.332 1.514-.951h.972c-.265 1.161-1.171 1.812-2.508 1.812m-.044-4.817c-.906 0-1.481.541-1.614 1.492h3.116c0-.895-.585-1.492-1.502-1.492m7.436-.718h1.027v5.403h-.928l-.11-.818c-.31.564-1.028.95-1.823.95-1.26 0-1.967-.85-1.967-2.176v-3.359h1.038v3.016c0 1.16.498 1.602 1.293 1.602.95 0 1.47-.607 1.47-1.768zm3.573 5.403h-1.039v-5.403h.928l.1.707c.276-.508.851-.862 1.613-.862.84 0 1.436.42 1.713 1.094.254-.674.906-1.094 1.745-1.094 1.238 0 1.989.774 1.989 2.022v3.536h-1.016v-3.282c0-.851-.475-1.337-1.205-1.337-.784 0-1.303.553-1.303 1.415v3.204h-1.028v-3.293c0-.851-.464-1.315-1.193-1.315-.785 0-1.304.542-1.304 1.404zm12.748 0h-1.061v-7.989h1.061l2.751 6.718 2.751-6.718h1.083v7.989h-1.061v-3.16c0-1.492.011-2.033.067-2.597l-2.332 5.757h-1.016l-2.321-5.735c.056.387.078 1.205.078 2.321zm9.849.132c-1.161 0-1.846-.651-1.846-1.635 0-.994.741-1.613 2.011-1.713l1.702-.132v-.155c0-.906-.542-1.226-1.271-1.226-.873 0-1.37.386-1.37 1.038h-.906c0-1.127.928-1.867 2.32-1.867 1.337 0 2.243.707 2.243 2.166v3.392h-.884l-.11-.873c-.276.619-1.017 1.005-1.889 1.005m.298-.806c.983 0 1.58-.641 1.58-1.658v-.287l-1.381.111c-.917.088-1.293.442-1.293.972 0 .575.42.862 1.094.862m4.532-6.011a.69.69 0 0 1-.685-.685.68.68 0 0 1 .685-.685.68.68 0 0 1 .685.685.69.69 0 0 1-.685.685m-.508 6.685v-5.403h1.038v5.403zm3.585 0h-1.039v-5.403h.939l.111.828c.343-.618 1.028-.983 1.79-.983 1.425 0 2.077.873 2.077 2.254v3.304h-1.038v-3.072c0-1.094-.509-1.536-1.304-1.536-.973 0-1.536.696-1.536 1.746zm6.355 0h-1.038v-5.403h.939l.11.828c.343-.618 1.028-.983 1.79-.983 1.426 0 2.078.873 2.078 2.254v3.304h-1.039v-3.072c0-1.094-.508-1.536-1.304-1.536-.972 0-1.536.696-1.536 1.746zm7.649.132c-1.591 0-2.685-1.149-2.685-2.828 0-1.691 1.071-2.862 2.64-2.862 1.536 0 2.542 1.061 2.542 2.663v.387l-4.177.011c.078 1.138.674 1.768 1.702 1.768.806 0 1.337-.332 1.513-.951h.973c-.265 1.161-1.171 1.812-2.508 1.812m-.045-4.817c-.906 0-1.48.541-1.613 1.492h3.116c0-.895-.585-1.492-1.503-1.492m5.173 4.685h-1.039v-4.53h-1.061v-.873h1.061v-1.691h1.039v1.691h1.06v.873h-1.06z"/><path fill="#fff" d="M98.533 350.639h303.854v79.186H98.533z"/><path fill="#2b2b2b" fill-opacity=".6" d="M216.62 418.646h-.884v-6.657h.884l2.293 5.599 2.293-5.599h.902v6.657h-.884v-2.633c0-1.243.009-1.694.055-2.164l-1.943 4.797h-.847l-1.933-4.778c.046.322.064 1.003.064 1.933zm8.207.111c-.966 0-1.537-.543-1.537-1.363 0-.828.617-1.344 1.676-1.427l1.417-.11v-.129c0-.755-.451-1.022-1.058-1.022-.728 0-1.142.322-1.142.865h-.755c0-.939.773-1.556 1.933-1.556 1.115 0 1.87.589 1.87 1.805v2.826h-.737l-.092-.727c-.23.516-.847.838-1.575.838m.249-.672c.819 0 1.317-.534 1.317-1.381v-.24l-1.151.092c-.764.074-1.078.369-1.078.811 0 .478.35.718.912.718m3.777-5.009a.574.574 0 0 1-.571-.571c0-.322.258-.571.571-.571s.571.249.571.571a.574.574 0 0 1-.571.571m-.424 5.57v-4.502h.866v4.502zm2.988 0h-.866v-4.502h.783l.092.69c.286-.515.856-.819 1.492-.819 1.188 0 1.731.727 1.731 1.878v2.753h-.866v-2.559c0-.912-.423-1.28-1.086-1.28-.811 0-1.28.58-1.28 1.455zm9.858.102c-1.897 0-3.158-1.363-3.158-3.425 0-2.054 1.298-3.444 3.204-3.444 1.501 0 2.652.893 2.9 2.256h-.966c-.249-.866-.995-1.391-1.962-1.391-1.344 0-2.228 1.013-2.228 2.569s.884 2.569 2.228 2.569c.976 0 1.75-.525 1.998-1.344h.958c-.285 1.326-1.473 2.21-2.974 2.21m3.638-2.357c0-1.391.995-2.367 2.348-2.367 1.345 0 2.339.976 2.339 2.367 0 1.39-.994 2.366-2.339 2.366-1.353 0-2.348-.976-2.348-2.366m.875 0c0 .939.599 1.593 1.473 1.593.866 0 1.474-.654 1.474-1.593 0-.94-.608-1.593-1.474-1.593-.874 0-1.473.653-1.473 1.593m5.636 2.255h-.866v-4.502h.783l.092.69c.285-.515.856-.819 1.492-.819 1.187 0 1.731.727 1.731 1.878v2.753h-.866v-2.559c0-.912-.423-1.28-1.086-1.28-.811 0-1.28.58-1.28 1.455zm5.701 0h-.865v-3.775h-.884v-.727h.884v-1.409h.865v1.409h.884v.727h-.884zm4.239-4.539v.792h-.387c-.819 0-1.326.497-1.326 1.363v2.384h-.865v-4.493h.81l.055.681c.185-.469.636-.782 1.253-.782.156 0 .285.018.46.055m1.949 4.65c-.967 0-1.538-.543-1.538-1.363 0-.828.617-1.344 1.676-1.427l1.418-.11v-.129c0-.755-.451-1.022-1.059-1.022-.727 0-1.142.322-1.142.865h-.755c0-.939.774-1.556 1.934-1.556 1.114 0 1.869.589 1.869 1.805v2.826h-.737l-.092-.727c-.23.516-.847.838-1.574.838m.248-.672c.82 0 1.317-.534 1.317-1.381v-.24l-1.151.092c-.764.074-1.077.369-1.077.811 0 .478.35.718.911.718m3.059-1.685c0-1.409.893-2.385 2.21-2.385 1.132 0 1.924.645 2.081 1.648h-.866c-.147-.571-.608-.875-1.188-.875-.819 0-1.381.627-1.381 1.603 0 .966.525 1.593 1.345 1.593.616 0 1.077-.323 1.233-.857h.866c-.175.976-1.013 1.63-2.099 1.63-1.326 0-2.201-.939-2.201-2.357m6.484 2.246h-.866v-3.775h-.884v-.727h.884v-1.409h.866v1.409h.884v.727h-.884z"/><g filter="url(#filter4_d_260_366)"><rect width="65.375" height="34.989" x="127.538" y="362.611" fill="url(#paint17_linear_260_366)" rx="8.858"/><rect width="61.692" height="31.306" x="129.379" y="364.453" stroke="url(#paint18_linear_260_366)" stroke-width="3.683" rx="7.016"/></g><path stroke="#535353" stroke-linecap="round" stroke-linejoin="round" stroke-width=".921" d="m144.542 385.478.904.502c.174.097.261.145.353.164a.6.6 0 0 0 .248 0c.092-.019.179-.067.353-.164l.904-.502m-5.524-1.535-.876-.486c-.184-.103-.276-.154-.343-.226a.6.6 0 0 1-.132-.224c-.031-.093-.031-.199-.031-.409v-.957m0-3.069v-.957c0-.21 0-.315.031-.409a.6.6 0 0 1 .132-.223c.067-.073.159-.124.343-.226l.876-.487m2.762-1.534.904-.503c.174-.096.261-.145.353-.164a.6.6 0 0 1 .248 0c.092.019.179.068.353.164l.904.503m2.763 1.534.876.487c.183.102.275.153.342.226q.09.097.132.223c.031.094.031.199.031.409v.957m0 3.069v.957c0 .21 0 .316-.031.409a.6.6 0 0 1-.132.224c-.067.072-.159.123-.342.226l-.876.486m-5.525-4.604 1.381.768m0 0 1.381-.768m-1.381.768v1.534m-5.525-4.603 1.382.767m8.287 0 1.381-.767m-5.525 7.673v1.534"/><path fill="#2b2b2b" d="M160.958 384.74h-2.641v-7.988h2.597c2.386 0 3.999 1.613 3.999 3.999 0 2.376-1.591 3.989-3.955 3.989m-.122-6.994H159.4v5.989h1.48c1.779 0 2.906-1.149 2.906-2.984 0-1.856-1.127-3.005-2.95-3.005m5.43 6.994h-1.127l2.917-7.988h1.205l2.928 7.988h-1.138l-.719-1.989h-3.358zm2.254-6.265-1.215 3.337h2.707l-1.226-3.337a3 3 0 0 1-.133-.464 4 4 0 0 1-.133.464m11.579 2.265c0 2.431-1.591 4.133-3.856 4.133-2.255 0-3.824-1.702-3.824-4.133 0-2.419 1.581-4.132 3.835-4.132 2.265 0 3.845 1.702 3.845 4.132m-1.138 0c0-1.856-1.083-3.082-2.707-3.082-1.625 0-2.696 1.226-2.696 3.082 0 1.857 1.071 3.094 2.696 3.094 1.624 0 2.707-1.248 2.707-3.094"/><g filter="url(#filter5_d_260_366)"><rect width="70.899" height="34.989" x="215.011" y="362.611" fill="url(#paint19_linear_260_366)" rx="8.858"/><rect width="67.216" height="31.306" x="216.852" y="364.453" stroke="url(#paint20_linear_260_366)" stroke-width="3.683" rx="7.016"/></g><path fill="#eceff0" d="M240.305 381.884a7.37 7.37 0 0 1-8.928 5.369c-3.944-.986-6.348-4.981-5.365-8.924.983-3.944 4.975-6.352 8.916-5.369 3.954.972 6.358 4.978 5.377 8.924"/><path fill="#343535" d="M233.244 381.892c-.029.01-.045-.015-.064-.026l-2.859-1.691-.029-.011v-.013l.017-.01.071-.023 2.248-1.022q.3-.137.601-.272h.014v.081z"/><path fill="#2f3030" d="M233.245 378.825h-.014l.003-.088v-3.355a.3.3 0 0 1 .006-.086h.006c.117.174.22.357.328.536l2.57 4.265.022.044-.071-.021-.471-.216-.732-.334-1.175-.533z"/><path fill="#828384" d="M233.241 375.295a.2.2 0 0 0-.006.085v3.356l-.003.087-.601.272-2.248 1.023q-.035.013-.071.023c.065-.135.15-.258.227-.387l2.678-4.447q.008-.013.019-.024z"/><path fill="#131313" d="m233.245 378.825.472.211 1.176.533.732.334.47.216.072.021c.028.035-.014.037-.027.044l-.734.435-2.106 1.247q-.027.014-.056.026v-2.986z"/><path fill="#2f3030" d="m233.234 382.458 1.839-1.084 1.052-.622.032-.018c.003.029-.017.044-.029.061l-2.404 3.388q-.227.322-.456.641c-.008.011-.02.064-.045.008.02-.016.011-.039.011-.057z"/><path fill="#828384" d="M233.234 382.458v2.316c0 .019.008.042-.011.057-.041-.025-.059-.069-.086-.105l-2.786-3.927-.035-.053c.024-.014.037.005.051.014l2.819 1.665z"/><path fill="#393939" d="m233.241 375.295-.007-.011c.013-.008.011.004.013.01z"/><path fill="#2b2b2b" d="M244.612 377.746v-.994h5.889v.994h-2.398v6.994h-1.082v-6.994zm5.573 4.287c0-1.668 1.194-2.839 2.818-2.839 1.613 0 2.806 1.171 2.806 2.839 0 1.669-1.193 2.84-2.806 2.84-1.624 0-2.818-1.171-2.818-2.84m1.05 0c0 1.127.718 1.912 1.768 1.912 1.039 0 1.768-.785 1.768-1.912s-.729-1.911-1.768-1.911c-1.05 0-1.768.784-1.768 1.911m6.785 2.707h-1.039v-8.132h1.039v5.27l2.398-2.541h1.303l-2.066 2.155 2.055 3.248h-1.193l-1.58-2.497-.917.961zm6.676.133c-1.591 0-2.684-1.149-2.684-2.829 0-1.69 1.071-2.862 2.64-2.862 1.536 0 2.542 1.061 2.542 2.663v.387l-4.177.011c.077 1.138.674 1.768 1.702 1.768.806 0 1.337-.331 1.513-.95h.973c-.266 1.16-1.172 1.812-2.509 1.812m-.044-4.818c-.906 0-1.48.542-1.613 1.492h3.116c0-.895-.586-1.492-1.503-1.492m4.74 4.685h-1.038v-5.403h.939l.11.829c.343-.619 1.028-.984 1.79-.984 1.426 0 2.078.873 2.078 2.255v3.303h-1.039v-3.071c0-1.094-.508-1.536-1.304-1.536-.972 0-1.536.696-1.536 1.745z"/><g filter="url(#filter6_d_260_366)"><rect width="77.345" height="34.989" x="302.023" y="362.611" fill="url(#paint21_linear_260_366)" rx="8.858"/><rect width="73.662" height="31.306" x="303.865" y="364.453" stroke="url(#paint22_linear_260_366)" stroke-width="3.683" rx="7.016"/></g><path stroke="#535353" stroke-linecap="round" stroke-linejoin="round" stroke-width=".921" d="M319.132 377.037h-.307a3.069 3.069 0 1 0 0 6.139h1.228a3.07 3.07 0 0 0 3.069-3.07m1.534 3.07h.307a3.07 3.07 0 0 0 0-6.139h-1.227a3.07 3.07 0 0 0-3.07 3.069"/><path fill="#2b2b2b" d="M333.927 384.74v-7.988h3.049c1.558 0 2.509.795 2.509 2.11 0 .917-.398 1.536-1.194 1.867.884.288 1.337.928 1.337 1.879 0 1.326-.961 2.132-2.541 2.132zm2.983-7.027h-1.9v2.563h1.966c.895 0 1.404-.486 1.404-1.315 0-.795-.531-1.248-1.47-1.248m.155 3.503h-2.055v2.563h2.055c.928 0 1.447-.475 1.447-1.304 0-.795-.53-1.259-1.447-1.259m6.836-1.923v.95h-.464c-.984 0-1.591.597-1.591 1.635v2.862h-1.039v-5.392h.972l.067.818c.221-.564.762-.939 1.502-.939.188 0 .343.022.553.066m1.482-1.238a.69.69 0 0 1-.685-.685c0-.386.309-.685.685-.685s.685.299.685.685a.69.69 0 0 1-.685.685m-.508 6.685v-5.403h1.038v5.403zm4.712.133c-1.569 0-2.519-1.171-2.519-2.818 0-1.657.961-2.873 2.563-2.873.829 0 1.525.365 1.89 1.028v-3.602h1.027v8.132h-.928l-.088-.983c-.354.74-1.083 1.116-1.945 1.116m.21-.939c1.061 0 1.713-.785 1.713-1.912 0-1.105-.652-1.9-1.713-1.9s-1.68.795-1.68 1.9c0 1.116.619 1.912 1.68 1.912m3.907-2.033c0-1.525.983-2.719 2.552-2.719.873 0 1.547.398 1.89 1.072l.077-.917h.928v5.182c0 1.702-1.049 2.785-2.707 2.785-1.469 0-2.475-.829-2.674-2.199h1.039c.133.795.729 1.259 1.635 1.259 1.017 0 1.68-.662 1.68-1.69v-1.083c-.354.63-1.061 1.006-1.912 1.006-1.536 0-2.508-1.183-2.508-2.696m1.039-.023c0 1.017.63 1.813 1.646 1.813 1.05 0 1.691-.752 1.691-1.813 0-1.038-.619-1.789-1.68-1.789-1.039 0-1.657.795-1.657 1.789m8.239 2.995c-1.591 0-2.685-1.149-2.685-2.829 0-1.69 1.071-2.862 2.64-2.862 1.536 0 2.542 1.061 2.542 2.663v.387l-4.177.011c.077 1.138.674 1.768 1.702 1.768.806 0 1.337-.331 1.513-.95h.973c-.265 1.16-1.171 1.812-2.508 1.812m-.045-4.818c-.906 0-1.48.542-1.613 1.492h3.116c0-.895-.585-1.492-1.503-1.492"/><g filter="url(#filter7_d_260_366)"><rect width="302.933" height="78.265" x="98.994" y="351.099" stroke="url(#paint23_linear_260_366)" stroke-width=".921" rx="8.397" shape-rendering="crispEdges"/></g><path fill="#fff" d="M207.184 280.469h90.236v15h-90.236z"/><path stroke="#535353" stroke-linecap="round" stroke-linejoin="round" stroke-width="1.228" d="M229.357 284.9h-.307a3.07 3.07 0 0 0 0 6.139h1.227a3.07 3.07 0 0 0 3.07-3.069m1.534 3.069h.307a3.069 3.069 0 1 0 0-6.139h-1.228a3.07 3.07 0 0 0-3.069 3.07"/><path fill="#2b2b2b" d="M247.835 292.469v-7.989h3.049c1.558 0 2.509.796 2.509 2.111 0 .917-.398 1.535-1.194 1.867.884.287 1.337.928 1.337 1.878 0 1.326-.961 2.133-2.541 2.133zm2.983-7.028h-1.9v2.564h1.966c.895 0 1.404-.486 1.404-1.315 0-.796-.531-1.249-1.47-1.249m.155 3.503h-2.055v2.563h2.055c.928 0 1.447-.475 1.447-1.303 0-.796-.53-1.26-1.447-1.26m6.836-1.923v.951h-.464c-.984 0-1.591.596-1.591 1.635v2.862h-1.039v-5.392h.972l.067.817c.22-.563.762-.939 1.502-.939.188 0 .343.022.553.066m1.482-1.237a.69.69 0 0 1-.685-.685.68.68 0 0 1 .685-.685.68.68 0 0 1 .685.685.69.69 0 0 1-.685.685m-.508 6.685v-5.403h1.038v5.403zm4.712.132c-1.569 0-2.519-1.171-2.519-2.817 0-1.658.961-2.873 2.563-2.873.829 0 1.525.365 1.89 1.028v-3.602h1.027v8.132h-.928l-.088-.984c-.354.741-1.083 1.116-1.945 1.116m.21-.939c1.061 0 1.713-.784 1.713-1.911 0-1.105-.652-1.901-1.713-1.901s-1.68.796-1.68 1.901c0 1.116.619 1.911 1.68 1.911m3.907-2.033c0-1.525.983-2.718 2.552-2.718.873 0 1.547.398 1.89 1.072l.077-.917h.928v5.182c0 1.701-1.049 2.784-2.707 2.784-1.469 0-2.475-.829-2.674-2.199h1.039c.133.796.729 1.26 1.635 1.26 1.017 0 1.68-.663 1.68-1.691v-1.082c-.354.629-1.061 1.005-1.912 1.005-1.536 0-2.508-1.182-2.508-2.696m1.039-.022c0 1.017.629 1.812 1.646 1.812 1.05 0 1.691-.751 1.691-1.812 0-1.039-.619-1.79-1.68-1.79-1.039 0-1.657.796-1.657 1.79m8.239 2.994c-1.592 0-2.685-1.149-2.685-2.828 0-1.691 1.071-2.862 2.64-2.862 1.536 0 2.542 1.061 2.542 2.663v.387l-4.177.011c.077 1.138.674 1.768 1.702 1.768.806 0 1.337-.332 1.513-.951h.973c-.265 1.16-1.171 1.812-2.508 1.812m-.045-4.817c-.906 0-1.48.541-1.613 1.492h3.116c0-.895-.586-1.492-1.503-1.492"/><path fill="#fff" d="M207.184 127.535h90.236v15h-90.236z"/><path stroke="#535353" stroke-linecap="round" stroke-linejoin="round" stroke-width="1.228" d="M229.357 131.967h-.307a3.07 3.07 0 1 0 0 6.138h1.227a3.07 3.07 0 0 0 3.07-3.069m1.534 3.069h.307a3.069 3.069 0 1 0 0-6.138h-1.228a3.07 3.07 0 0 0-3.069 3.069"/><path fill="#2b2b2b" d="M247.835 139.535v-7.988h3.049c1.558 0 2.509.795 2.509 2.11 0 .917-.398 1.536-1.194 1.867.884.288 1.337.928 1.337 1.879 0 1.326-.961 2.132-2.541 2.132zm2.983-7.027h-1.9v2.563h1.966c.895 0 1.404-.486 1.404-1.315 0-.795-.531-1.248-1.47-1.248m.155 3.502h-2.055v2.564h2.055c.928 0 1.447-.475 1.447-1.304 0-.795-.53-1.26-1.447-1.26m6.836-1.922v.95h-.464c-.984 0-1.591.597-1.591 1.635v2.862h-1.039v-5.392h.972l.067.818c.22-.564.762-.939 1.502-.939.188 0 .343.022.553.066m1.482-1.238a.69.69 0 0 1-.685-.685c0-.386.309-.685.685-.685s.685.299.685.685a.69.69 0 0 1-.685.685m-.508 6.685v-5.403h1.038v5.403zm4.712.133c-1.569 0-2.519-1.171-2.519-2.818 0-1.657.961-2.873 2.563-2.873.829 0 1.525.365 1.89 1.028v-3.602h1.027v8.132h-.928l-.088-.983c-.354.74-1.083 1.116-1.945 1.116m.21-.939c1.061 0 1.713-.785 1.713-1.912 0-1.105-.652-1.9-1.713-1.9s-1.68.795-1.68 1.9c0 1.116.619 1.912 1.68 1.912m3.907-2.033c0-1.525.983-2.719 2.552-2.719.873 0 1.547.398 1.89 1.072l.077-.917h.928v5.182c0 1.702-1.049 2.785-2.707 2.785-1.469 0-2.475-.829-2.674-2.199h1.039c.133.795.729 1.259 1.635 1.259 1.017 0 1.68-.663 1.68-1.69v-1.083c-.354.63-1.061 1.006-1.912 1.006-1.536 0-2.508-1.183-2.508-2.696m1.039-.023c0 1.017.629 1.812 1.646 1.812 1.05 0 1.691-.751 1.691-1.812 0-1.038-.619-1.79-1.68-1.79-1.039 0-1.657.796-1.657 1.79m8.239 2.995c-1.592 0-2.685-1.149-2.685-2.829 0-1.69 1.071-2.862 2.64-2.862 1.536 0 2.542 1.061 2.542 2.663v.387l-4.177.011c.077 1.138.674 1.768 1.702 1.768.806 0 1.337-.332 1.513-.95h.973c-.265 1.16-1.171 1.812-2.508 1.812m-.045-4.818c-.906 0-1.48.542-1.613 1.492h3.116c0-.895-.586-1.492-1.503-1.492"/><g clip-path="url(#clip1_260_366)"><path fill="#b7b5b1" d="M112.847 20.983c-1.39-8.057-11.91-6.496-12.096 0 .608.315.988.504.988.504s-.322.194-.992.623c1.214 7.9 11.552 6.75 12.1-.01-.659-.405-1.017-.616-1.017-.616s.308-.143 1.017-.502m-5.175 2.814-.988-1.697-1.003 1.697-.759-.054 1.429-2.406-1.286-2.077.778-.068.916 1.54.917-1.472.723.018-1.199 2.041 1.321 2.457z"/><path fill="#244b81" d="M112.356 20.664c-1.883-7.158-10.524-5.22-11.114 0 1.199.673 1.471.835 1.471.835s-.462.297-1.475.938c1.286 6.882 10.606 5.56 11.118-.007-.941-.591-1.496-.935-1.496-.935s1.267-.709 1.496-.83m-4.683 3.137-.989-1.697-1.002 1.697-.759-.054 1.425-2.406-1.286-2.077.774-.068.916 1.54.917-1.472.723.018-1.199 2.041 1.321 2.456z"/></g><path fill="#213147" d="M120.44 23.107a6.447 6.447 0 0 1-7.812 4.697 6.446 6.446 0 0 1-4.695-7.809c.86-3.45 4.353-5.558 7.802-4.697 3.459.85 5.563 4.356 4.705 7.809"/><path fill="#213147" d="M110.186 19.724v3.79c0 .232.135.465.329.58l3.287 1.895a.7.7 0 0 0 .677 0l3.287-1.895a.66.66 0 0 0 .33-.58v-3.79a.7.7 0 0 0-.33-.58l-3.288-1.894a.7.7 0 0 0-.678 0l-3.286 1.895a.66.66 0 0 0-.328.58"/><path fill="#12aaff" d="M115.638 20.189c.039-.077.135-.077.154 0l1.623 4.467-.927.542-1.315-3.617a.12.12 0 0 1 0-.115zM114.4 23.63l.465-1.276c.038-.077.135-.077.153 0l1.122 3.055-.928.542-.812-2.205a.12.12 0 0 1 0-.115"/><path fill="#9dcced" d="M114.13 17.385c.02 0 .038 0 .058.02l3.557 2.05q.058.028.058.115v4.099c0 .038-.02.097-.058.115l-3.557 2.05c-.02.02-.038.02-.058.02s-.038 0-.058-.02l-3.557-2.05q-.057-.029-.058-.115v-4.1c0-.037.02-.097.058-.115l3.557-2.05c.018-.02.038-.02.058-.02m0-.6a.8.8 0 0 0-.367.097l-3.558 2.05a.72.72 0 0 0-.367.638v4.099c0 .252.135.502.367.637l3.558 2.05a.8.8 0 0 0 .367.097.8.8 0 0 0 .367-.097l3.558-2.05a.72.72 0 0 0 .367-.637v-4.1a.74.74 0 0 0-.367-.637l-3.539-2.05a.8.8 0 0 0-.368-.097z"/><path fill="#213147" d="m111.79 25.196.328-.89.658.543-.618.58z"/><path fill="#fff" d="M114.496 19.28h.909l-.019-.019c.057 0 .097.058.077.116l-2.397 6.574-.928-.542 2.203-6.032c.02-.06.097-.097.155-.097m-1.565 0h.889c.058 0 .097.057.078.115l-2.127 5.82-.928-.541 1.933-5.297c.019-.06.097-.097.155-.097"/><path fill="#676767" d="M128.314 18.058v6.983h3.514v1.006h-4.597v-7.989zm4.052 5.282c0-1.669 1.193-2.84 2.818-2.84 1.613 0 2.806 1.171 2.806 2.84s-1.193 2.84-2.806 2.84c-1.625 0-2.818-1.172-2.818-2.84m1.05 0c0 1.127.718 1.911 1.768 1.911 1.038 0 1.767-.784 1.767-1.911s-.729-1.912-1.767-1.912c-1.05 0-1.768.785-1.768 1.912m5.37.01c0-1.69 1.072-2.86 2.652-2.86 1.359 0 2.309.773 2.497 1.977h-1.038c-.177-.685-.73-1.05-1.426-1.05-.983 0-1.657.752-1.657 1.923 0 1.16.63 1.911 1.613 1.911.74 0 1.293-.386 1.481-1.027h1.038c-.21 1.171-1.215 1.956-2.519 1.956-1.591 0-2.641-1.128-2.641-2.83m7.836 2.83c-1.16 0-1.845-.652-1.845-1.636 0-.994.74-1.613 2.011-1.713l1.701-.132v-.155c0-.906-.541-1.226-1.27-1.226-.873 0-1.37.386-1.37 1.038h-.906c0-1.127.928-1.867 2.32-1.867 1.337 0 2.243.707 2.243 2.166v3.392h-.884l-.11-.873c-.277.619-1.017 1.006-1.89 1.006m.298-.807c.984 0 1.581-.641 1.581-1.658v-.287l-1.382.11c-.917.09-1.292.443-1.292.973 0 .575.419.862 1.093.862m5.085.674h-1.039v-8.132h1.039zm8.042.121c-2.276 0-3.79-1.635-3.79-4.11 0-2.464 1.558-4.132 3.845-4.132 1.801 0 3.182 1.072 3.481 2.707h-1.161c-.298-1.039-1.193-1.669-2.353-1.669-1.613 0-2.674 1.216-2.674 3.083s1.061 3.083 2.674 3.083c1.171 0 2.099-.63 2.398-1.613h1.149c-.343 1.59-1.768 2.651-3.569 2.651m5.704-.132h-1.038v-8.121h1.038v3.558c.343-.586.995-.984 1.835-.984 1.381 0 2.044.873 2.044 2.254v3.304h-1.039v-3.072c0-1.094-.519-1.536-1.293-1.536-1.005 0-1.547.73-1.547 1.658zm6.897.143c-1.16 0-1.845-.651-1.845-1.635 0-.994.74-1.613 2.011-1.713l1.702-.132v-.155c0-.906-.542-1.226-1.271-1.226-.873 0-1.37.386-1.37 1.038h-.906c0-1.127.928-1.867 2.32-1.867 1.337 0 2.243.707 2.243 2.166v3.392h-.884l-.11-.873c-.277.619-1.017 1.006-1.89 1.006m.299-.806c.983 0 1.58-.641 1.58-1.658v-.287l-1.382.11c-.917.09-1.292.443-1.292.973 0 .575.42.862 1.094.862m4.532-6.01a.69.69 0 0 1-.685-.686.68.68 0 0 1 .685-.685c.375 0 .685.298.685.685 0 .376-.31.685-.685.685m-.508 6.684v-5.403h1.038v5.403zm3.585 0h-1.039v-5.403h.939l.111.829c.342-.62 1.027-.984 1.79-.984 1.425 0 2.077.873 2.077 2.254v3.304h-1.039v-3.072c0-1.094-.508-1.536-1.304-1.536-.972 0-1.535.696-1.535 1.746zm4.81-1.57h.994c0 .553.42.885 1.105.885.729 0 1.149-.298 1.149-.796 0-.364-.177-.585-.74-.729l-.95-.221c-.962-.232-1.415-.707-1.415-1.503 0-.994.84-1.624 2.033-1.624 1.183 0 1.956.663 1.978 1.69h-.994c-.022-.54-.387-.883-1.017-.883-.652 0-1.016.287-1.016.784 0 .365.265.608.795.74l.951.232c.917.221 1.37.641 1.37 1.448 0 1.028-.884 1.68-2.166 1.68-1.271 0-2.077-.674-2.077-1.702"/><rect width="302.934" height="76.425" x="98.073" y="38.8" stroke="#f2f2f2" stroke-width=".92" rx="10.54"/><g filter="url(#filter8_d_260_366)"><rect width="56.958" height="56.958" x="115.832" y="50.549" fill="url(#paint24_linear_260_366)" rx="28.479"/><rect width="54.11" height="54.11" x="117.256" y="51.973" stroke="url(#paint25_linear_260_366)" stroke-width="2.848" rx="27.055"/></g><path fill="#2b2b2b" d="M136.619 87.255v-3.98h.837v3.93c0 .99.547 1.537 1.529 1.537.974 0 1.512-.555 1.512-1.538v-3.93h.846v3.981c0 1.419-.905 2.299-2.358 2.299-1.461 0-2.366-.872-2.366-2.299m5.605.983h.768c0 .427.325.683.855.683.564 0 .888-.23.888-.615 0-.282-.136-.453-.572-.564l-.735-.17c-.743-.18-1.093-.547-1.093-1.162 0-.77.649-1.256 1.572-1.256.914 0 1.512.512 1.529 1.307h-.769c-.017-.419-.299-.684-.786-.684-.504 0-.786.222-.786.607q0 .421.615.572l.735.18c.709.17 1.059.495 1.059 1.12 0 .794-.683 1.298-1.674 1.298-.983 0-1.606-.522-1.606-1.316m5.974 1.316c-1.231 0-2.076-.889-2.076-2.187 0-1.308.828-2.213 2.041-2.213 1.188 0 1.965.82 1.965 2.059v.299l-3.229.008c.06.88.521 1.367 1.316 1.367.623 0 1.034-.256 1.17-.734h.752c-.205.897-.906 1.4-1.939 1.4m-.035-3.725c-.7 0-1.144.418-1.247 1.153h2.409c0-.692-.452-1.153-1.162-1.153m5.255-.59v.735h-.359c-.76 0-1.23.461-1.23 1.264v2.213h-.803v-4.17h.751l.052.633c.17-.436.589-.726 1.162-.726.145 0 .264.017.427.051"/><path stroke="#535353" stroke-linecap="round" stroke-linejoin="round" stroke-width=".712" d="M148.82 76.895c0-.662 0-.993-.082-1.263a1.9 1.9 0 0 0-1.266-1.266c-.269-.081-.6-.081-1.263-.081h-2.373c-.662 0-.994 0-1.263.081a1.9 1.9 0 0 0-1.266 1.266c-.082.27-.082.6-.082 1.263m5.933-6.407a2.136 2.136 0 1 1-4.271 0 2.136 2.136 0 0 1 4.271 0"/><path fill="url(#paint26_linear_260_366)" d="M215.114 78.497a.46.46 0 0 0 0-.65l-2.93-2.93a.46.46 0 1 0-.651.65l2.604 2.605-2.604 2.604a.46.46 0 1 0 .651.651zm-.326-.325v-.46h-26.702v.92h26.702z"/><path stroke="#535353" stroke-linecap="round" stroke-linejoin="round" stroke-width=".921" d="m241.144 75.273-5.218 2.898m0 0-5.217-2.899m5.217 2.9v5.83m5.525-3.34V75.68c0-.21 0-.316-.031-.41a.6.6 0 0 0-.132-.223c-.067-.072-.158-.124-.342-.226l-4.543-2.523c-.174-.097-.261-.145-.353-.164a.6.6 0 0 0-.247 0c-.093.019-.18.067-.354.164l-4.542 2.523c-.184.103-.276.154-.343.226a.6.6 0 0 0-.131.224c-.031.093-.031.198-.031.409v4.982c0 .21 0 .316.031.41a.6.6 0 0 0 .131.223c.067.073.159.124.343.226l4.542 2.524c.174.096.261.145.354.164a.6.6 0 0 0 .247 0c.092-.02.179-.068.353-.164l4.543-2.524c.184-.102.275-.153.342-.226a.6.6 0 0 0 .132-.223c.031-.094.031-.2.031-.41"/><path fill="#2b2b2b" d="M249.308 74.816v7.989h-1.083v-7.989zm4.967 5.138h-2.022v2.85h-1.083v-7.988h3.105c1.569 0 2.575 1.028 2.575 2.563 0 1.492-1.017 2.575-2.575 2.575m-.188-4.166h-1.834v3.194h1.79c1.072 0 1.669-.63 1.669-1.614 0-1.005-.608-1.58-1.625-1.58m8.21 3.625h-3.138v3.392h-1.083v-7.989h4.818v.995h-3.735v2.618h3.138zm1.444-2.442c0-1.37 1.105-2.299 2.751-2.299 1.525 0 2.509.851 2.597 2.232h-1.094c-.055-.795-.619-1.26-1.514-1.26-1.005 0-1.657.509-1.657 1.293 0 .641.365 1.028 1.116 1.205l1.315.31c1.304.298 1.967 1.005 1.967 2.132 0 1.436-1.116 2.353-2.818 2.353-1.624 0-2.707-.85-2.773-2.22h1.105c.022.762.662 1.248 1.668 1.248 1.061 0 1.735-.497 1.735-1.293 0-.63-.343-1.027-1.105-1.204l-1.315-.299c-1.304-.298-1.978-1.05-1.978-2.198"/><g filter="url(#filter9_d_260_366)"><rect width="97.537" height="29.184" x="289.229" y="60.578" fill="url(#paint27_linear_260_366)" rx="7.388"/><rect width="94.465" height="26.112" x="290.766" y="62.114" stroke="url(#paint28_linear_260_366)" stroke-width="3.072" rx="5.852"/></g><g clip-path="url(#clip2_260_366)"><path stroke="#535353" stroke-linecap="round" stroke-linejoin="round" stroke-width=".768" d="M301.926 72.099v8.192m0-8.192h-1.811a1 1 0 0 1-.711-.3 1.036 1.036 0 0 1 0-1.448 1 1 0 0 1 .711-.3c1.408 0 1.811 2.048 1.811 2.048m0 0h1.81a1 1 0 0 0 .711-.3 1.03 1.03 0 0 0 0-1.448 1 1 0 0 0-.711-.3c-1.408 0-1.81 2.048-1.81 2.048m4.096 2.56v3.993c0 .574 0 .86-.112 1.08-.098.192-.255.35-.447.447-.219.112-.506.112-1.08.112h-4.915c-.573 0-.86 0-1.079-.112a1.02 1.02 0 0 1-.448-.447c-.111-.22-.111-.506-.111-1.08V74.66m-1.024-1.741v.922c0 .286 0 .43.055.54.05.096.128.174.224.223.11.056.253.056.54.056h8.602c.286 0 .43 0 .539-.056a.5.5 0 0 0 .224-.224c.056-.11.056-.253.056-.54v-.921c0-.287 0-.43-.056-.54a.5.5 0 0 0-.224-.223c-.109-.056-.253-.056-.539-.056h-8.602c-.287 0-.43 0-.54.056a.5.5 0 0 0-.224.223c-.055.11-.055.253-.055.54"/></g><path fill="#2b2b2b" d="M319.49 79.027h-4.064v-6.663h4.064v.83h-3.161v2.082h2.848v.802h-2.848v2.11h3.161zm2.479.11c-.967 0-1.539-.543-1.539-1.363 0-.83.618-1.346 1.678-1.428l1.419-.111v-.13c0-.755-.452-1.022-1.06-1.022-.728 0-1.143.322-1.143.866h-.756c0-.94.775-1.557 1.936-1.557 1.115 0 1.871.59 1.871 1.806v2.83h-.738l-.092-.729c-.23.516-.848.839-1.576.839m.249-.672c.82 0 1.318-.534 1.318-1.382v-.24l-1.152.092c-.765.074-1.078.369-1.078.811 0 .48.35.72.912.72m5.937-3.981v.792h-.387c-.82 0-1.327.498-1.327 1.364v2.387h-.867V74.53h.811l.056.682c.184-.47.636-.784 1.253-.784.157 0 .286.019.461.056m1.679 4.543h-.867v-4.506h.784l.092.69c.286-.515.857-.82 1.493-.82 1.189 0 1.733.729 1.733 1.88v2.756h-.867v-2.562c0-.912-.424-1.28-1.087-1.28-.811 0-1.281.58-1.281 1.455zm11.431 0-.525-.599c-.516.461-1.226.72-2.065.72-1.428 0-2.368-.738-2.368-1.853 0-.82.525-1.475 1.631-2.046-.571-.655-.783-1.06-.783-1.558 0-.838.654-1.437 1.594-1.437.912 0 1.539.562 1.539 1.382 0 .663-.341 1.18-1.198 1.76l1.594 1.816a3.4 3.4 0 0 0 .231-1.3h.838c0 .756-.184 1.42-.506 1.936l1.032 1.18zm-3.29-5.345c0 .35.157.627.673 1.217.562-.341.829-.747.829-1.245 0-.433-.276-.7-.737-.7-.47 0-.765.286-.765.728m-.765 3.548c0 .728.581 1.17 1.548 1.17.618 0 1.115-.184 1.484-.543l-1.871-2.12c-.829.461-1.161.894-1.161 1.493m9.017 1.797h-.903v-6.663h2.516c1.428 0 2.276.756 2.276 2 0 .922-.46 1.585-1.29 1.852l1.355 2.811h-1.005l-1.244-2.635h-1.705zm0-5.852v2.415h1.622c.839 0 1.318-.452 1.318-1.217 0-.774-.498-1.198-1.327-1.198zm6.6 5.963c-1.327 0-2.239-.959-2.239-2.36 0-1.41.894-2.386 2.202-2.386 1.281 0 2.12.884 2.12 2.22v.323l-3.484.01c.065.949.563 1.474 1.42 1.474.672 0 1.115-.276 1.262-.793h.811c-.221.968-.977 1.512-2.092 1.512m-.037-4.018c-.755 0-1.235.451-1.345 1.244h2.599c0-.747-.489-1.244-1.254-1.244m3.902 3.907-1.474-4.506h.894l.746 2.34c.102.332.194.673.277 1.07a7.4 7.4 0 0 1 .295-1.07l.755-2.34h.885l.747 2.34c.073.222.221.747.294 1.07a9 9 0 0 1 .286-1.07l.756-2.34h.903l-1.539 4.506h-.82l-.784-2.414a9 9 0 0 1-.285-1.05 13 13 0 0 1-.295 1.059l-.784 2.405zm7.218.11c-.968 0-1.54-.543-1.54-1.363 0-.83.618-1.346 1.678-1.428l1.419-.111v-.13c0-.755-.452-1.022-1.06-1.022-.728 0-1.143.322-1.143.866h-.755c0-.94.774-1.557 1.935-1.557 1.115 0 1.871.59 1.871 1.806v2.83h-.737l-.093-.729c-.23.516-.847.839-1.575.839m.248-.672c.821 0 1.318-.534 1.318-1.382v-.24l-1.152.092c-.765.074-1.078.369-1.078.811 0 .48.35.72.912.72m5.937-3.981v.792h-.387c-.82 0-1.327.498-1.327 1.364v2.387h-.866V74.53h.811l.055.682c.184-.47.636-.784 1.253-.784.157 0 .286.019.461.056m2.457 4.654c-1.309 0-2.101-.977-2.101-2.35 0-1.383.802-2.396 2.138-2.396.691 0 1.272.304 1.576.857v-3.005h.857v6.783h-.774l-.074-.82c-.295.618-.903.93-1.622.93m.175-.783c.885 0 1.429-.655 1.429-1.595 0-.921-.544-1.585-1.429-1.585s-1.401.664-1.401 1.585c0 .931.516 1.595 1.401 1.595m3.176-.636h.83c0 .46.35.737.921.737.608 0 .959-.249.959-.664 0-.304-.148-.488-.618-.608l-.792-.184c-.802-.194-1.18-.59-1.18-1.254 0-.829.7-1.354 1.696-1.354.986 0 1.631.553 1.649 1.41h-.829c-.019-.452-.323-.738-.848-.738-.544 0-.848.24-.848.655q0 .454.664.617l.792.194c.765.184 1.143.534 1.143 1.207 0 .857-.737 1.4-1.806 1.4-1.06 0-1.733-.561-1.733-1.418"/><defs><linearGradient id="paint0_linear_260_366" x1="2287750000000" x2="2287750000000" y1="87364.2" y2="87390.4" gradientUnits="userSpaceOnUse"><stop stop-color="#e3e3e3" stop-opacity=".9"/><stop offset="1" stop-color="#b3b3b3"/></linearGradient><linearGradient id="paint1_linear_260_366" x1="2287750000000" x2="2287750000000" y1="83838.5" y2="83863.8" gradientUnits="userSpaceOnUse"><stop stop-color="#e3e3e3" stop-opacity=".9"/><stop offset="1" stop-color="#b3b3b3"/></linearGradient><linearGradient id="paint2_linear_260_366" x1="2287750000000" x2="2287750000000" y1="87364.2" y2="87390.4" gradientUnits="userSpaceOnUse"><stop stop-color="#e3e3e3" stop-opacity=".9"/><stop offset="1" stop-color="#b3b3b3"/></linearGradient><linearGradient id="paint3_linear_260_366" x1="2287750000000" x2="2287750000000" y1="83838.5" y2="83863.8" gradientUnits="userSpaceOnUse"><stop stop-color="#e3e3e3" stop-opacity=".9"/><stop offset="1" stop-color="#b3b3b3"/></linearGradient><linearGradient id="paint4_linear_260_366" x1="2287750000000" x2="2287750000000" y1="87364.2" y2="87390.4" gradientUnits="userSpaceOnUse"><stop stop-color="#e3e3e3" stop-opacity=".9"/><stop offset="1" stop-color="#b3b3b3"/></linearGradient><linearGradient id="paint5_linear_260_366" x1="2287750000000" x2="2287750000000" y1="83838.5" y2="83863.8" gradientUnits="userSpaceOnUse"><stop stop-color="#e3e3e3" stop-opacity=".9"/><stop offset="1" stop-color="#b3b3b3"/></linearGradient><linearGradient id="paint6_linear_260_366" x1="107.741" x2="107.741" y1="157.652" y2="180.978" gradientUnits="userSpaceOnUse"><stop stop-color="#1246ff"/><stop offset="1" stop-color="#4770ff"/></linearGradient><linearGradient id="paint7_linear_260_366" x1="107.741" x2="107.741" y1="180.364" y2="158.88" gradientUnits="userSpaceOnUse"><stop stop-color="#1246ff"/><stop offset="1" stop-color="#4770ff"/></linearGradient><linearGradient id="paint8_linear_260_366" x1="165.289" x2="165.289" y1="192.047" y2="227.036" gradientUnits="userSpaceOnUse"><stop stop-color="#f4f4f4"/><stop offset="1" stop-color="#fff"/></linearGradient><linearGradient id="paint9_linear_260_366" x1="165.289" x2="165.289" y1="192.047" y2="227.036" gradientUnits="userSpaceOnUse"><stop stop-color="#fff"/><stop offset="1" stop-color="#f5f5f5"/></linearGradient><linearGradient id="paint10_linear_260_366" x1="137.448" x2="137.448" y1="198.646" y2="221.972" gradientUnits="userSpaceOnUse"><stop stop-color="#1246ff"/><stop offset="1" stop-color="#4770ff"/></linearGradient><linearGradient id="paint11_linear_260_366" x1="137.448" x2="137.448" y1="221.358" y2="199.874" gradientUnits="userSpaceOnUse"><stop stop-color="#1246ff"/><stop offset="1" stop-color="#4770ff"/></linearGradient><linearGradient id="paint12_linear_260_366" x1="262.891" x2="262.891" y1="192.047" y2="227.036" gradientUnits="userSpaceOnUse"><stop stop-color="#f4f4f4"/><stop offset="1" stop-color="#fff"/></linearGradient><linearGradient id="paint13_linear_260_366" x1="262.891" x2="262.891" y1="192.047" y2="227.036" gradientUnits="userSpaceOnUse"><stop stop-color="#fff"/><stop offset="1" stop-color="#f5f5f5"/></linearGradient><linearGradient id="paint14_linear_260_366" x1="347.141" x2="347.141" y1="192.047" y2="227.036" gradientUnits="userSpaceOnUse"><stop stop-color="#f4f4f4"/><stop offset="1" stop-color="#fff"/></linearGradient><linearGradient id="paint15_linear_260_366" x1="347.141" x2="347.141" y1="192.047" y2="227.036" gradientUnits="userSpaceOnUse"><stop stop-color="#fff"/><stop offset="1" stop-color="#f5f5f5"/></linearGradient><linearGradient id="paint16_linear_260_366" x1="249.54" x2="249.54" y1="180.078" y2="259.264" gradientUnits="userSpaceOnUse"><stop stop-color="#fff"/><stop offset="1" stop-color="#f5f5f5"/></linearGradient><linearGradient id="paint17_linear_260_366" x1="160.225" x2="160.225" y1="362.611" y2="397.601" gradientUnits="userSpaceOnUse"><stop stop-color="#f4f4f4"/><stop offset="1" stop-color="#fff"/></linearGradient><linearGradient id="paint18_linear_260_366" x1="160.225" x2="160.225" y1="362.611" y2="397.601" gradientUnits="userSpaceOnUse"><stop stop-color="#fff"/><stop offset="1" stop-color="#f5f5f5"/></linearGradient><linearGradient id="paint19_linear_260_366" x1="250.46" x2="250.46" y1="362.611" y2="397.601" gradientUnits="userSpaceOnUse"><stop stop-color="#f4f4f4"/><stop offset="1" stop-color="#fff"/></linearGradient><linearGradient id="paint20_linear_260_366" x1="250.46" x2="250.46" y1="362.611" y2="397.601" gradientUnits="userSpaceOnUse"><stop stop-color="#fff"/><stop offset="1" stop-color="#f5f5f5"/></linearGradient><linearGradient id="paint21_linear_260_366" x1="340.696" x2="340.696" y1="362.611" y2="397.601" gradientUnits="userSpaceOnUse"><stop stop-color="#f4f4f4"/><stop offset="1" stop-color="#fff"/></linearGradient><linearGradient id="paint22_linear_260_366" x1="340.696" x2="340.696" y1="362.611" y2="397.601" gradientUnits="userSpaceOnUse"><stop stop-color="#fff"/><stop offset="1" stop-color="#f5f5f5"/></linearGradient><linearGradient id="paint23_linear_260_366" x1="250.46" x2="250.46" y1="350.639" y2="429.825" gradientUnits="userSpaceOnUse"><stop stop-color="#fff"/><stop offset="1" stop-color="#f5f5f5"/></linearGradient><linearGradient id="paint24_linear_260_366" x1="144.311" x2="144.311" y1="50.549" y2="107.507" gradientUnits="userSpaceOnUse"><stop stop-color="#f4f4f4"/><stop offset="1" stop-color="#fff"/></linearGradient><linearGradient id="paint25_linear_260_366" x1="144.311" x2="144.311" y1="50.549" y2="107.507" gradientUnits="userSpaceOnUse"><stop stop-color="#fff"/><stop offset="1" stop-color="#f5f5f5"/></linearGradient><linearGradient id="paint26_linear_260_366" x1="246.134" x2="227.559" y1="2287750000000" y2="2287750000000" gradientUnits="userSpaceOnUse"><stop stop-color="#e3e3e3" stop-opacity=".9"/><stop offset="1" stop-color="#b3b3b3"/></linearGradient><linearGradient id="paint27_linear_260_366" x1="337.998" x2="337.998" y1="60.578" y2="89.762" gradientUnits="userSpaceOnUse"><stop stop-color="#f4f4f4"/><stop offset="1" stop-color="#fff"/></linearGradient><linearGradient id="paint28_linear_260_366" x1="337.998" x2="337.998" y1="60.578" y2="89.762" gradientUnits="userSpaceOnUse"><stop stop-color="#fff"/><stop offset="1" stop-color="#f5f5f5"/></linearGradient><filter id="filter0_d_260_366" width="95.087" height="38.919" x="117.745" y="190.081" color-interpolation-filters="sRGB" filterUnits="userSpaceOnUse"><feFlood flood-opacity="0" result="BackgroundImageFix"/><feColorMatrix in="SourceAlpha" result="hardAlpha" values="0 0 0 0 0 0 0 0 0 0 0 0 0 0 0 0 0 0 127 0"/><feMorphology in="SourceAlpha" operator="dilate" radius="1.474" result="effect1_dropShadow_260_366"/><feOffset/><feGaussianBlur stdDeviation=".246"/><feComposite in2="hardAlpha" operator="out"/><feColorMatrix values="0 0 0 0 0 0 0 0 0 0 0 0 0 0 0 0 0 0 0.05 0"/><feBlend in2="BackgroundImageFix" result="effect1_dropShadow_260_366"/><feBlend in="SourceGraphic" in2="effect1_dropShadow_260_366" result="shape"/></filter><filter id="filter1_d_260_366" width="85.879" height="38.919" x="219.951" y="190.081" color-interpolation-filters="sRGB" filterUnits="userSpaceOnUse"><feFlood flood-opacity="0" result="BackgroundImageFix"/><feColorMatrix in="SourceAlpha" result="hardAlpha" values="0 0 0 0 0 0 0 0 0 0 0 0 0 0 0 0 0 0 127 0"/><feMorphology in="SourceAlpha" operator="dilate" radius="1.474" result="effect1_dropShadow_260_366"/><feOffset/><feGaussianBlur stdDeviation=".246"/><feComposite in2="hardAlpha" operator="out"/><feColorMatrix values="0 0 0 0 0 0 0 0 0 0 0 0 0 0 0 0 0 0 0.05 0"/><feBlend in2="BackgroundImageFix" result="effect1_dropShadow_260_366"/><feBlend in="SourceGraphic" in2="effect1_dropShadow_260_366" result="shape"/></filter><filter id="filter2_d_260_366" width="68.385" height="38.919" x="312.949" y="190.081" color-interpolation-filters="sRGB" filterUnits="userSpaceOnUse"><feFlood flood-opacity="0" result="BackgroundImageFix"/><feColorMatrix in="SourceAlpha" result="hardAlpha" values="0 0 0 0 0 0 0 0 0 0 0 0 0 0 0 0 0 0 127 0"/><feMorphology in="SourceAlpha" operator="dilate" radius="1.474" result="effect1_dropShadow_260_366"/><feOffset/><feGaussianBlur stdDeviation=".246"/><feComposite in2="hardAlpha" operator="out"/><feColorMatrix values="0 0 0 0 0 0 0 0 0 0 0 0 0 0 0 0 0 0 0.05 0"/><feBlend in2="BackgroundImageFix" result="effect1_dropShadow_260_366"/><feBlend in="SourceGraphic" in2="effect1_dropShadow_260_366" result="shape"/></filter><filter id="filter3_d_260_366" width="307.785" height="83.117" x="95.647" y="178.113" color-interpolation-filters="sRGB" filterUnits="userSpaceOnUse"><feFlood flood-opacity="0" result="BackgroundImageFix"/><feColorMatrix in="SourceAlpha" result="hardAlpha" values="0 0 0 0 0 0 0 0 0 0 0 0 0 0 0 0 0 0 127 0"/><feMorphology in="SourceAlpha" operator="dilate" radius="1.474" result="effect1_dropShadow_260_366"/><feOffset/><feGaussianBlur stdDeviation=".246"/><feComposite in2="hardAlpha" operator="out"/><feColorMatrix values="0 0 0 0 0 0 0 0 0 0 0 0 0 0 0 0 0 0 0.05 0"/><feBlend in2="BackgroundImageFix" result="effect1_dropShadow_260_366"/><feBlend in="SourceGraphic" in2="effect1_dropShadow_260_366" result="shape"/></filter><filter id="filter4_d_260_366" width="69.306" height="38.921" x="125.572" y="360.646" color-interpolation-filters="sRGB" filterUnits="userSpaceOnUse"><feFlood flood-opacity="0" result="BackgroundImageFix"/><feColorMatrix in="SourceAlpha" result="hardAlpha" values="0 0 0 0 0 0 0 0 0 0 0 0 0 0 0 0 0 0 127 0"/><feMorphology in="SourceAlpha" operator="dilate" radius="1.474" result="effect1_dropShadow_260_366"/><feOffset/><feGaussianBlur stdDeviation=".246"/><feComposite in2="hardAlpha" operator="out"/><feColorMatrix values="0 0 0 0 0 0 0 0 0 0 0 0 0 0 0 0 0 0 0.05 0"/><feBlend in2="BackgroundImageFix" result="effect1_dropShadow_260_366"/><feBlend in="SourceGraphic" in2="effect1_dropShadow_260_366" result="shape"/></filter><filter id="filter5_d_260_366" width="74.83" height="38.921" x="213.045" y="360.646" color-interpolation-filters="sRGB" filterUnits="userSpaceOnUse"><feFlood flood-opacity="0" result="BackgroundImageFix"/><feColorMatrix in="SourceAlpha" result="hardAlpha" values="0 0 0 0 0 0 0 0 0 0 0 0 0 0 0 0 0 0 127 0"/><feMorphology in="SourceAlpha" operator="dilate" radius="1.474" result="effect1_dropShadow_260_366"/><feOffset/><feGaussianBlur stdDeviation=".246"/><feComposite in2="hardAlpha" operator="out"/><feColorMatrix values="0 0 0 0 0 0 0 0 0 0 0 0 0 0 0 0 0 0 0.05 0"/><feBlend in2="BackgroundImageFix" result="effect1_dropShadow_260_366"/><feBlend in="SourceGraphic" in2="effect1_dropShadow_260_366" result="shape"/></filter><filter id="filter6_d_260_366" width="81.276" height="38.921" x="300.058" y="360.646" color-interpolation-filters="sRGB" filterUnits="userSpaceOnUse"><feFlood flood-opacity="0" result="BackgroundImageFix"/><feColorMatrix in="SourceAlpha" result="hardAlpha" values="0 0 0 0 0 0 0 0 0 0 0 0 0 0 0 0 0 0 127 0"/><feMorphology in="SourceAlpha" operator="dilate" radius="1.474" result="effect1_dropShadow_260_366"/><feOffset/><feGaussianBlur stdDeviation=".246"/><feComposite in2="hardAlpha" operator="out"/><feColorMatrix values="0 0 0 0 0 0 0 0 0 0 0 0 0 0 0 0 0 0 0.05 0"/><feBlend in2="BackgroundImageFix" result="effect1_dropShadow_260_366"/><feBlend in="SourceGraphic" in2="effect1_dropShadow_260_366" result="shape"/></filter><filter id="filter7_d_260_366" width="307.785" height="83.117" x="96.568" y="348.673" color-interpolation-filters="sRGB" filterUnits="userSpaceOnUse"><feFlood flood-opacity="0" result="BackgroundImageFix"/><feColorMatrix in="SourceAlpha" result="hardAlpha" values="0 0 0 0 0 0 0 0 0 0 0 0 0 0 0 0 0 0 127 0"/><feMorphology in="SourceAlpha" operator="dilate" radius="1.474" result="effect1_dropShadow_260_366"/><feOffset/><feGaussianBlur stdDeviation=".246"/><feComposite in2="hardAlpha" operator="out"/><feColorMatrix values="0 0 0 0 0 0 0 0 0 0 0 0 0 0 0 0 0 0 0.05 0"/><feBlend in2="BackgroundImageFix" result="effect1_dropShadow_260_366"/><feBlend in="SourceGraphic" in2="effect1_dropShadow_260_366" result="shape"/></filter><filter id="filter8_d_260_366" width="59.997" height="59.997" x="114.312" y="49.029" color-interpolation-filters="sRGB" filterUnits="userSpaceOnUse"><feFlood flood-opacity="0" result="BackgroundImageFix"/><feColorMatrix in="SourceAlpha" result="hardAlpha" values="0 0 0 0 0 0 0 0 0 0 0 0 0 0 0 0 0 0 127 0"/><feMorphology in="SourceAlpha" operator="dilate" radius="1.14" result="effect1_dropShadow_260_366"/><feOffset/><feGaussianBlur stdDeviation=".19"/><feComposite in2="hardAlpha" operator="out"/><feColorMatrix values="0 0 0 0 0 0 0 0 0 0 0 0 0 0 0 0 0 0 0.05 0"/><feBlend in2="BackgroundImageFix" result="effect1_dropShadow_260_366"/><feBlend in="SourceGraphic" in2="effect1_dropShadow_260_366" result="shape"/></filter><filter id="filter9_d_260_366" width="100.815" height="32.462" x="287.59" y="58.939" color-interpolation-filters="sRGB" filterUnits="userSpaceOnUse"><feFlood flood-opacity="0" result="BackgroundImageFix"/><feColorMatrix in="SourceAlpha" result="hardAlpha" values="0 0 0 0 0 0 0 0 0 0 0 0 0 0 0 0 0 0 127 0"/><feMorphology in="SourceAlpha" operator="dilate" radius="1.23" result="effect1_dropShadow_260_366"/><feOffset/><feGaussianBlur stdDeviation=".205"/><feComposite in2="hardAlpha" operator="out"/><feColorMatrix values="0 0 0 0 0 0 0 0 0 0 0 0 0 0 0 0 0 0 0.05 0"/><feBlend in2="BackgroundImageFix" result="effect1_dropShadow_260_366"/><feBlend in="SourceGraphic" in2="effect1_dropShadow_260_366" result="shape"/></filter><clipPath id="clip0_260_366"><path fill="#fff" d="M325.473 202.176h14.732v14.732h-14.732z"/></clipPath><clipPath id="clip1_260_366"><path fill="#fff" d="M100.375 15.102h12.891v12.89h-12.891z"/></clipPath><clipPath id="clip2_260_366"><path fill="#fff" d="M295.782 69.027h12.288v12.288h-12.288z"/></clipPath></defs></svg>