<svg width="37" height="37" viewBox="0 0 37 37" fill="none" xmlns="http://www.w3.org/2000/svg">
<path d="M36.803 15.4586C30.5684 -8.23512 1.96757 -1.82275 0.0118529 15.4586C3.98254 17.687 4.88336 18.2204 4.88336 18.2204C4.88336 18.2204 3.35435 19.2041 0 21.3258C4.25516 44.1069 35.108 39.7332 36.803 21.3021C33.6857 19.3464 31.8485 18.2085 31.8485 18.2085C31.8485 18.2085 36.0444 15.8616 36.803 15.4586ZM21.2995 25.8417L18.0281 20.2235L14.7093 25.8417L12.1965 25.6639L16.914 17.6988L12.6588 10.8242L15.219 10.599L18.2533 15.6957L21.2876 10.8242L23.6819 10.8835L19.7112 17.6396L24.0849 25.7706L21.2995 25.8417Z" fill="#244B81"/>
</svg>
