<svg xmlns="http://www.w3.org/2000/svg" width="16" height="16" viewBox="0 0 16 16" fill="none"><path d="M2.667 12v-.133c0-1.12 0-1.68.218-2.108a2 2 0 0 1 .874-.874c.428-.218.988-.218 2.108-.218h4.266c1.12 0 1.68 0 2.108.218a2 2 0 0 1 .874.874c.218.428.218.988.218 2.108V12M2.667 12a1.333 1.333 0 1 0 0 2.667 1.333 1.333 0 0 0 0-2.667m10.666 0a1.333 1.333 0 1 0 0 2.667 1.333 1.333 0 0 0 0-2.667M8 12a1.333 1.333 0 1 0 0 2.667A1.333 1.333 0 0 0 8 12m0 0V5.334m-4 0h8c.621 0 .932 0 1.177-.102.327-.135.586-.395.722-.722C14 4.265 14 3.955 14 3.334c0-.622 0-.932-.101-1.177a1.33 1.33 0 0 0-.722-.722c-.245-.102-.556-.102-1.177-.102H4c-.621 0-.932 0-1.177.102a1.33 1.33 0 0 0-.721.722C2 2.402 2 2.712 2 3.333c0 .622 0 .932.102 1.177.135.327.394.587.721.722.245.101.556.101 1.177.101" stroke="#535353" stroke-width=".667" stroke-linecap="round" stroke-linejoin="round"/></svg>