<svg xmlns="http://www.w3.org/2000/svg" width="16" height="16" viewBox="0 0 16 16" fill="none"><path d="m6.5 13.833.982.546c.189.105.284.158.384.178q.134.027.268 0c.1-.02.195-.073.384-.178l.982-.546m-6-1.666-.951-.529c-.2-.11-.3-.166-.373-.245a.7.7 0 0 1-.142-.243C2 11.048 2 10.934 2 10.706v-1.04m0-3.333V5.294c0-.228 0-.342.034-.444a.7.7 0 0 1 .142-.243c.073-.079.173-.134.373-.245l.951-.529m3-1.666.982-.546c.189-.105.284-.157.384-.178a.7.7 0 0 1 .268 0c.1.02.195.073.384.178l.982.546m3 1.666.951.529c.2.11.3.166.373.245q.097.107.142.243c.034.102.034.216.034.444v1.04m0 3.333v1.039c0 .228 0 .342-.034.444a.7.7 0 0 1-.142.243c-.073.079-.173.134-.373.245l-.951.529m-6-5L8 8m0 0 1.5-.833M8 8v1.667m-6-5 1.5.833m9 0 1.5-.833M8 13v1.667" stroke="#535353" stroke-linecap="round" stroke-linejoin="round"/></svg>