<svg xmlns="http://www.w3.org/2000/svg" width="16" height="16" viewBox="0 0 16 16" fill="none"><path d="M10.667 4.667c0-.62 0-.93-.069-1.185a2 2 0 0 0-1.414-1.414C8.93 2 8.62 2 8 2s-.93 0-1.184.068A2 2 0 0 0 5.4 3.482c-.068.255-.068.565-.068 1.185M3.467 14h9.066c.747 0 1.12 0 1.406-.145.25-.128.454-.332.582-.583.146-.285.146-.659.146-1.405V6.8c0-.747 0-1.12-.146-1.405a1.33 1.33 0 0 0-.582-.583c-.286-.145-.659-.145-1.406-.145H3.467c-.747 0-1.12 0-1.406.145-.25.128-.455.332-.582.583-.146.285-.146.658-.146 1.405v5.067c0 .746 0 1.12.146 1.405.127.25.331.455.582.583.285.145.659.145 1.406.145" stroke="#535353" stroke-linecap="round" stroke-linejoin="round"/></svg>