<svg xmlns="http://www.w3.org/2000/svg" width="16" height="16" viewBox="0 0 16 16" fill="none"><path d="M9.333 7.333h-4M6.667 10H5.333m5.334-5.333H5.333m8-.134v6.934c0 1.12 0 1.68-.218 2.108a2 2 0 0 1-.874.874c-.427.218-.987.218-2.108.218H5.867c-1.12 0-1.68 0-2.108-.218a2 2 0 0 1-.874-.874c-.218-.428-.218-.988-.218-2.108V4.533c0-1.12 0-1.68.218-2.108a2 2 0 0 1 .874-.874c.428-.218.988-.218 2.108-.218h4.266c1.12 0 1.68 0 2.108.218a2 2 0 0 1 .874.874c.218.428.218.988.218 2.108" stroke="#535353" stroke-linecap="round" stroke-linejoin="round"/></svg>