<svg xmlns="http://www.w3.org/2000/svg" width="16" height="13" viewBox="0 0 16 13" fill="none"><path d="m8.035 1.844-.814-.814a2.377 2.377 0 0 0-3.363 0L1.03 3.887a2.377 2.377 0 0 0 0 3.362l.719.72m4.863-4.662L1.786 8.123a1.028 1.028 0 1 0 1.455 1.454l3.67-3.67m3.226 2.59-2.35 2.35A1.028 1.028 0 1 0 9.243 12.3L14.7 6.843a2.377 2.377 0 0 0 0-3.362l-2.448-2.447a2.377 2.377 0 0 0-3.362 0l-.736.734" stroke="#535353" stroke-width=".667" stroke-miterlimit="10"/><path d="M8.537 7.188 5.11 10.616a1.028 1.028 0 0 0 1.455 1.454l3.64-3.64" stroke="#535353" stroke-width=".667" stroke-miterlimit="10"/><path d="M6.931 5.887 3.448 9.369a1.028 1.028 0 0 0 1.455 1.455l3.645-3.646m-2.268-4.2 2.272 2.29a1.028 1.028 0 0 0 1.455-1.454l-2.61-2.609" stroke="#535353" stroke-width=".667" stroke-miterlimit="10"/></svg>