<svg width="30" height="24" viewBox="0 0 30 24" fill="none" xmlns="http://www.w3.org/2000/svg">
<path fill-rule="evenodd" clip-rule="evenodd" d="M14.8889 0C20.3601 0 24.9761 3.66148 26.4202 8.66774C28.2824 8.71382 29.7778 10.2378 29.7778 12.1111C29.7778 14.0067 28.2465 15.5447 26.3534 15.5555C24.8381 20.447 20.2784 24 14.8889 24C9.49936 24 4.93968 20.447 3.42437 15.5555C1.53129 15.5447 0 14.0067 0 12.1111C0 10.2378 1.49542 8.71382 3.3576 8.66774C4.80171 3.66148 9.41771 0 14.8889 0ZM4.25668 8.76299C5.64246 4.20542 9.87837 0.888889 14.8889 0.888889C19.8994 0.888889 24.1353 4.20542 25.5211 8.76298C24.0108 9.12809 22.8889 10.4886 22.8889 12.1111C22.8889 13.7103 23.9788 15.055 25.4563 15.4429C24.007 19.8941 19.8236 23.1111 14.8889 23.1111C9.95413 23.1111 5.77074 19.8941 4.32149 15.4429C5.79901 15.055 6.88889 13.7103 6.88889 12.1111C6.88889 10.4886 5.76703 9.12809 4.25668 8.76299Z" fill="#1246FF"/>
</svg>
